<svg width="49" height="49" fill="none" xmlns="http://www.w3.org/2000/svg"><path d="M36.99 20.34c0-3.31-1.316-6.483-3.658-8.824a12.496 12.496 0 0 0-17.664 0 12.473 12.473 0 0 0-3.658 8.824c0 5.12 4.1 11.791 12.49 19.783 8.39-7.992 12.49-14.664 12.49-19.783ZM24.5 43.911C14.322 34.67 9.235 26.81 9.235 20.341c0-4.046 1.608-7.925 4.47-10.785a15.273 15.273 0 0 1 21.59 0 15.245 15.245 0 0 1 4.47 10.784c0 6.47-5.087 14.329-15.265 23.571Z" fill="#FFDF6B"/><path d="M24.5 24.5a4.594 4.594 0 1 0 0-9.188 4.594 4.594 0 0 0 0 9.188Zm0 3.063a7.656 7.656 0 1 1 0-15.312 7.656 7.656 0 0 1 0 15.312Z" fill="#FFDF6B"/></svg>