<svg width="35" height="35" fill="none" xmlns="http://www.w3.org/2000/svg"><path d="M32.831 6.024 28.36 1.556a2.889 2.889 0 0 0-4.098 0l-4.817 4.808a2.898 2.898 0 0 0 0 4.106l3.763 3.767a17.025 17.025 0 0 1-3.628 5.346 17.058 17.058 0 0 1-5.342 3.636l-3.762-3.766a2.889 2.889 0 0 0-4.099 0l-4.82 4.808a2.898 2.898 0 0 0 0 4.107l4.468 4.468A5.028 5.028 0 0 0 9.559 34.3c.273 0 .538-.02.807-.067 5.56-.916 11.077-3.876 15.532-8.327 4.452-4.46 7.408-9.977 8.332-15.541a5.006 5.006 0 0 0-1.399-4.342Zm-1.579 3.842c-.818 4.95-3.48 9.889-7.491 13.9-4.01 4.01-8.944 6.672-13.895 7.49a1.975 1.975 0 0 1-1.713-.554l-4.389-4.388 4.653-4.657 5.03 5.04.039.037.907-.336A20.21 20.21 0 0 0 26.39 14.397l.336-.907-5.073-5.069 4.653-4.657 4.388 4.389c.454.453.663 1.091.558 1.713Z" fill="#FFDF6B"/></svg>