<svg class="footer-logo site-footer__logo" xmlns="http://www.w3.org/2000/svg" viewBox="0 0 258.42 58.36">
        <path class="logo-full__valmet" d="M132.44 10.08l-17.09 17.08a5.9 5.9 0 0 1-8.35 0L92.36 12.53a5.91 5.91 0 1 1 8.36-8.36l10.45 10.46 10.46-10.46a5.91 5.91 0 0 1 8.36 0l2.47 2.47 1.72-1.73-2.46-2.47a8.38 8.38 0 0 0-11.82 0l-8.73 8.73-8.73-8.73a8.35 8.35 0 0 0-11.81 11.81l14.64 14.64a8.37 8.37 0 0 0 11.81 0l17.09-17.08z" fill="#fff"></path><path class="logo-full__automotive" d="M166.53 17.08L151.89 2.44a8.37 8.37 0 0 0-11.81 0l-5.91 5.91 1.72 1.73 5.91-5.91a5.91 5.91 0 0 1 8.36 0l14.64 14.64a5.91 5.91 0 0 1-8.36 8.35L146 16.71l-10.47 10.45a5.91 5.91 0 0 1-8.36 0l-2.47-2.46-1.7 1.73 2.46 2.46a8.35 8.35 0 0 0 11.81 0l8.73-8.73 8.73 8.73a8.35 8.35 0 0 0 11.82-11.81" fill="#55c0e9"></path><path class="logo-full__name" d="M14.68 45L8.37 58.14H6.31L0 45h3.23l4.11 8.81L11.46 45zm226.15 0l-4.12 8.81L232.6 45h-3.23l6.31 13.18h2.07L244.06 45zM20.17 53.53h4.35l-2.17-4.79zM23.49 45l6.4 13.18h-3.22l-1.13-2.28h-6.42L18 58.14h-3.19L21.21 45zm84 8.57h4.35l-2.18-4.79zm3.35-8.57l6.4 13.18H114l-1.13-2.28h-6.42l-1.08 2.28h-3.23L108.56 45zm-77.63 0v13.14H43v-2.51h-6.81V45zm26.5 0l-5.28 4.5-5.32-4.5h-2.46v13.14h3v-9l4.77 4 4.77-4v9h2.91L62.17 45zm123.63 0l-5.28 4.5-5.32-4.5h-2.45v13.14h3v-9l4.77 4 4.77-4v9h2.93L185.8 45zm-116.4 0v13.14H78v-2.51h-8v-3h7.25v-2.49h-7.32v-2.68h7.91V45zm180.45 0v13.14h11v-2.51h-8v-3h7.25v-2.49h-7.25v-2.68h7.91V45zM80.6 45v2.5h5.06v10.64h3V47.46h5V45zm55.87 0v2.5h5.05v10.64h3V47.46h5.05V45zm70.05 0v2.5h5.06v10.64h3V47.46h5.06V45zm-76.32 6.81c0 2.73-1.34 4-3.73 4s-3.74-1.32-3.74-4V45h-3v6.87c0 4.27 2.68 6.53 6.73 6.53s6.72-2.26 6.72-6.53V45h-3zm24.44-.26a4.29 4.29 0 1 1 4.28 4.31 4.15 4.15 0 0 1-4.28-4.31m11.56 0c0-4.07-3.32-6.81-7.28-6.81s-7.27 2.74-7.27 6.81 3.32 6.81 7.27 6.81 7.28-2.68 7.28-6.81m26.67 0a4.29 4.29 0 1 1 4.29 4.31 4.15 4.15 0 0 1-4.29-4.31m11.56 0c0-4.07-3.32-6.81-7.27-6.81s-7.27 2.74-7.27 6.81 3.31 6.81 7.27 6.81 7.27-2.68 7.27-6.81m18.62 6.59h3V45h-3z" fill="#fff"></path>
      </svg>