<svg width="68" height="59" viewBox="0 0 620 342" fill="none" xmlns="http://www.w3.org/2000/svg"><path d="m32.57 58.92-.24 19.96c0 13.95.22 21.76.65 23.39.43 1.65 1.36 3.35 2.78 5.1 1.43 1.75 4.41 2.76 8.93 3.03 2.42.11 3.64.7 3.64 1.78 0 1.19-.86 1.78-2.59 1.78-.65 0-2.34-.13-5.09-.4-5.6-.54-10.56-.81-14.87-.81-3.66 0-8.75.2-15.27.58l-4.53.22c-1.72 0-2.59-.54-2.59-1.62s1.27-1.62 3.8-1.62c3.45 0 5.93-.97 7.43-2.91 1.5-1.94 2.49-6.88 2.95-14.83.45-7.94.68-18.43.68-31.47 0-12.28-.22-21.96-.65-29.05-.43-7.09-1.04-11.74-1.81-13.94-.79-2.21-1.96-3.78-3.52-4.73-1.56-.93-4.53-1.54-8.89-1.81C1.66 11.46.79 10.94.79 10c0-.84.75-1.31 2.26-1.42C16.52 7.5 41.97 6.96 79.42 6.96c6.41 0 9.9.1 10.46.28.57.2.97.55 1.22 1.06.23.51.97 4.24 2.17 11.19 1.22 6.95 1.82 10.59 1.82 10.91 0 1.13-.48 1.7-1.45 1.7-.69 0-1.36-.54-2-1.62-7.61-13.2-19.94-19.8-37.03-19.8-5.87 0-10.63.26-14.27.76-3.64.52-5.76 1.13-6.35 1.87-.59.72-.99 4.1-1.18 10.14-.19 6.04-.28 16.57-.28 31.6 4.26.22 7.2.32 8.82.32 7.77 0 13.17-1.65 16.22-4.97 3.04-3.3 4.65-6.74 4.81-10.3.11-2.37.72-3.56 1.84-3.56 1.18 0 1.77.81 1.77 2.42 0 .54-.06 1.21-.18 2.02-.42 3.12-.63 11.12-.63 24v9.37c0 2.26-.67 3.39-2 3.39-1.13 0-1.71-.84-1.77-2.51-.16-4.85-1.7-8.82-4.6-11.92-2.91-3.09-8.63-4.64-17.19-4.64-1.35 0-3.72.08-7.05.25Zm91.88-14.07c.27 3.5.51 13.63.73 30.39.11 10.45.38 17.42.81 20.89.43 3.48 1.79 6.35 4.09 8.61 2.28 2.26 4.91 3.39 7.87 3.39 3.88 0 7.77-1.8 11.68-5.41 3.9-3.61 6.31-7.47 7.23-11.6.92-4.11 1.37-13.59 1.37-28.4 0-6.9-.43-11.07-1.29-12.53-.86-1.45-2.96-2.29-6.3-2.51-1.24-.05-1.86-.51-1.86-1.37 0-.59.19-.98.57-1.17.38-.19 1.59-.29 3.64-.29h16.16c.48 5.87.73 12.45.73 19.72l-.65 30.39c0 6.25.52 10.18 1.58 11.8 1.04 1.62 2.7 2.53 4.97 2.75 1.4.22 2.1.75 2.1 1.62 0 .97-1.37 1.45-4.12 1.45h-12.77c-2.21 0-3.31-.73-3.31-2.18 0-.43.03-.92.08-1.45.16-1.62.24-3.26.24-4.93 0-1.4-.08-3.45-.24-6.14-4.09 5.28-8.35 9.24-12.77 11.88-4.42 2.64-9.02 3.96-13.82 3.96-4.09 0-7.53-1-10.3-2.99-2.78-1.99-4.62-4.41-5.5-7.23-.9-2.84-1.5-9.88-1.82-21.14-.32-11.26-.48-20.1-.48-26.51 0-3.5-.19-5.68-.57-6.55-.38-.87-1.56-1.35-3.56-1.45-2.15-.16-3.23-.7-3.23-1.62 0-.92 1.29-1.37 3.88-1.37h14.86v-.01Zm85.18-1.29c1.29 3.18 2.07 8.54 2.34 16.08 3.34-5.28 7.04-9.24 11.12-11.88 4.06-2.64 8.49-3.96 13.29-3.96 3.66 0 7.2.69 10.63 2.06 3.41 1.37 6.05 3.74 7.92 7.1 1.85 3.37 2.78 9.08 2.78 17.15l-.48 27.21c0 5 .41 8.14 1.26 9.4.83 1.27 2.62 2.27 5.37 3.03 1.89.54 2.83 1.13 2.83 1.78 0 .81-.46 1.21-1.37 1.21-.38 0-.75-.03-1.13-.07-2.48-.49-6.14-.74-10.99-.74-4.36 0-9.05.19-14.06.57-1.99 0-2.99-.46-2.99-1.37 0-.65.54-1.08 1.62-1.29 2.96-.65 4.9-1.32 5.82-2.02.92-.7 1.56-1.63 1.94-2.78.38-1.16.69-5.04.92-11.65.25-6.62.37-12.01.37-16.14 0-11.35-1.43-18.91-4.28-22.68-2.86-3.76-6.41-5.65-10.67-5.65-6.3 0-11.55 3.41-15.71 10.22-4.18 6.82-6.27 18.17-6.27 34.07 0 7.22.47 11.82 1.42 13.77.93 1.98 3.3 3.17 7.07 3.6 1.19.11 1.78.62 1.78 1.54 0 .75-.59 1.13-1.77 1.13l-4.19-.32c-1.51-.11-6.47-.16-14.91-.16l-6.45.16c-2.36 0-3.55-.43-3.55-1.29 0-.92 1.28-1.62 3.85-2.1 2.46-.48 4.11-1.34 4.97-2.55.85-1.21 1.43-5.24 1.72-12.09.3-6.85.44-15.4.44-25.65 0-9.54-.65-15.48-1.94-17.8-1.29-2.33-3.1-3.75-5.41-4.29-2.1-.48-3.15-1.16-3.15-2.02 0-.92.81-1.37 2.42-1.37l6.55.08c.68-.05 4.32-.13 10.89-.29ZM341.19 2.11c.05 11.53.08 27.1.08 46.71l-.65 51.31c0 5.66 2.61 8.94 7.84 9.86 1.72.32 2.59.89 2.59 1.7 0 .65-.31 1.05-.92 1.21-.63.16-4.19.24-10.71.24-3.34-.05-6.65-.11-9.94-.16-.16-3.29-.24-5.66-.24-7.11 0-1.83.08-4.44.24-7.84-2.91 5.39-6.22 9.43-9.94 12.12-3.72 2.69-7.84 4.04-12.36 4.04-6.41 0-12.92-3.02-19.52-9.05-6.6-6.03-9.89-14.17-9.89-24.41 0-9.97 3.08-18.61 9.25-25.94 6.17-7.33 13.76-10.99 22.75-10.99 4.53 0 8.43.96 11.72 2.86 3.29 1.92 5.95 4.81 8 8.69.32-6.35.48-12.32.48-17.91 0-17.16-.43-26.68-1.29-28.56-.86-1.88-2.88-3.01-6.06-3.39-1.99-.28-2.99-.8-2.99-1.58 0-.94 1.27-1.41 3.8-1.41l17.76-.39Zm-11.4 72.4c0-9.16-1.55-16.01-4.65-20.57-3.1-4.54-7.77-6.82-14.02-6.82-6.52 0-11.42 2.66-14.71 7.96-3.29 5.32-4.93 13.27-4.93 23.88 0 10.72 1.95 18.4 5.85 23.03 3.9 4.63 8.15 6.95 12.73 6.95s9.01-2.43 13.29-7.32c4.31-4.87 6.44-13.91 6.44-27.11Zm73.46 27.88c-2.64 3.83-5.79 6.7-9.45 8.6-3.66 1.91-7.81 2.87-12.44 2.87-5.44 0-9.72-1.45-12.81-4.36-3.1-2.91-4.64-6.74-4.64-11.48 0-3.56.92-6.87 2.79-9.94 1.85-3.07 3.98-5.28 6.38-6.63 2.4-1.35 6.62-3.04 12.65-5.1 8.62-2.86 13.79-5.23 15.52-7.11 1.72-1.89 2.59-4.34 2.59-7.36 0-4.81-1.13-8.56-3.39-11.23-2.26-2.68-5.47-4.01-9.62-4.01-3.39 0-5.95.75-7.68 2.27-1.72 1.57-3.04 4.62-3.96 9.17-.97 4.98-3.1 7.47-6.38 7.47-1.19 0-2.5-.59-3.92-1.78s-2.14-2.94-2.14-5.25c0-4.04 2.24-7.55 6.71-10.55 4.47-2.98 10.61-4.48 18.42-4.48 6.2 0 11.13.88 14.82 2.63 3.69 1.75 6.01 3.76 6.95 6.02.94 2.27 1.42 6.64 1.42 13.11l-.48 21.36c0 8.25.49 14.12 1.49 17.6 1 3.47 2.85 5.22 5.54 5.22.54 0 1.29-.08 2.26-.24l1.37-.16c1.24 0 1.86.45 1.86 1.35 0 2.07-5.31 3.1-15.92 3.1-3.07 0-5.14-.72-6.18-2.15-1.08-1.43-1.65-4.41-1.76-8.94Zm0-31.51c-1.62 2.1-5.28 4.66-10.99 7.68-5.66 2.91-9.72 5.68-12.2 8.32-2.48 2.69-3.72 5.93-3.72 9.7 0 3.39 1.01 6.28 3.03 8.65 2.03 2.37 4.54 3.56 7.56 3.56 3.12 0 6.06-.95 8.81-2.86 2.75-1.91 4.78-4.35 6.1-7.32 1.32-2.96 1.98-7.35 1.98-13.17 0-4.38-.19-9.23-.57-14.56Zm30.71 9.25c0-9.87 3.16-18.51 9.5-25.9 6.32-7.39 14.04-11.08 23.15-11.08 5.87 0 11.5 1.45 16.89 4.32 5.39 2.89 8.08 6.48 8.08 10.79 0 1.67-.51 3.14-1.54 4.4-1.02 1.28-2.21 1.9-3.56 1.9-3.02 0-5.33-2.42-6.95-7.27-2.48-7.43-6.82-11.15-13.01-11.15-6.14 0-10.82 2.66-14.02 7.97-3.21 5.31-4.81 12.28-4.81 20.91 0 10.15 2.24 18.42 6.71 24.85 4.47 6.42 9.86 9.63 16.16 9.63 4.15 0 8.16-1.62 12.04-4.85 3.83-3.18 6.06-7.06 6.71-11.64.27-1.56.86-2.34 1.78-2.34.97 0 1.45.48 1.45 1.45 0 5.28-2.44 10.24-7.32 14.87-4.88 4.63-11.4 6.95-19.59 6.95-8.94 0-16.46-3.39-22.55-10.19-6.09-6.8-9.12-14.66-9.12-23.62Zm93.9-36.81c-.32 23.06-.48 36.55-.48 40.49 0 22.52-.28 37.48-.85 44.9-.56 7.4-3.3 13.76-8.2 19.07-4.9 5.3-10.86 7.96-17.86 7.96-3.99 0-7.5-1.11-10.54-3.32-3.04-2.22-4.57-5.39-4.57-9.5 0-2.38.7-4.28 2.1-5.72 1.4-1.43 2.91-2.15 4.53-2.15 1.67 0 3.09.54 4.25 1.62 1.16 1.08 1.73 2.56 1.73 4.44 0 .92-.35 2.29-1.05 4.12-.43 1.19-.65 2.21-.65 3.07 0 1.4.48 2.46 1.45 3.2.97.72 2.4 1.09 4.28 1.09 3.23 0 6.14-1.13 8.73-3.39 2.59-2.26 4.18-5.03 4.77-8.31.59-3.29.92-12.84.97-28.66l.16-49.82c0-6.57-.42-10.74-1.26-12.52-.84-1.78-2.97-2.67-6.42-2.67-.59 0-1.21.03-1.86.08-2.32 0-3.47-.54-3.47-1.62 0-1.02 1.56-1.56 4.69-1.62 7-.12 13.52-.36 19.55-.74ZM520.02 0c1.72 0 3.31.66 4.77 1.98 1.45 1.32 2.18 2.97 2.18 4.97 0 1.94-.73 3.55-2.18 4.8-1.45 1.28-3.04 1.9-4.77 1.9-1.72 0-3.29-.63-4.69-1.9-1.4-1.26-2.1-2.89-2.1-4.88 0-1.78.59-3.37 1.78-4.77C516.2.7 517.87 0 520.02 0Zm69.42 102.39c-2.64 3.83-5.79 6.7-9.45 8.6-3.66 1.91-7.81 2.87-12.44 2.87-5.44 0-9.72-1.45-12.81-4.36-3.1-2.91-4.64-6.74-4.64-11.48 0-3.56.92-6.87 2.79-9.94 1.85-3.07 3.98-5.28 6.38-6.63 2.4-1.35 6.62-3.04 12.65-5.1 8.62-2.86 13.79-5.23 15.52-7.11 1.72-1.89 2.59-4.34 2.59-7.36 0-4.81-1.13-8.56-3.39-11.23-2.26-2.68-5.47-4.01-9.62-4.01-3.39 0-5.95.75-7.68 2.27-1.72 1.57-3.04 4.62-3.96 9.17-.97 4.98-3.1 7.47-6.38 7.47-1.19 0-2.5-.59-3.92-1.78s-2.14-2.94-2.14-5.25c0-4.04 2.24-7.55 6.71-10.55 4.47-2.98 10.61-4.48 18.42-4.48 6.2 0 11.13.88 14.82 2.63 3.69 1.75 6.01 3.76 6.95 6.02.94 2.27 1.42 6.64 1.42 13.11l-.48 21.36c0 8.25.49 14.12 1.49 17.6 1 3.47 2.85 5.22 5.54 5.22.54 0 1.29-.08 2.26-.24l1.37-.16c1.24 0 1.86.45 1.86 1.35 0 2.07-5.31 3.1-15.92 3.1-3.07 0-5.14-.72-6.18-2.15-1.08-1.43-1.65-4.41-1.76-8.94Zm0-31.51c-1.62 2.1-5.28 4.66-10.99 7.68-5.66 2.91-9.72 5.68-12.2 8.32-2.48 2.69-3.72 5.93-3.72 9.7 0 3.39 1.01 6.28 3.03 8.65 2.03 2.37 4.54 3.56 7.56 3.56 3.12 0 6.06-.95 8.81-2.86 2.75-1.91 4.78-4.35 6.1-7.32 1.32-2.96 1.98-7.35 1.98-13.17 0-4.38-.19-9.23-.57-14.56Zm-486.32 88.29c2.59-2.59 4.33-5.29 5.2-8.08.77-2.32 1.88-3.47 3.32-3.47.77 0 1.63.48 2.59 1.45.67 3.47 1.64 10.45 2.89 20.95l3.47 27.15c0 1.73-1.06 2.59-3.18 2.59-1.15 0-2.16-.96-3.03-2.88-5.11-12.62-12.67-23.11-22.68-31.49-10.01-8.28-20.94-12.42-32.78-12.42-11.65 0-20.44 3.51-26.36 10.54-5.92 7.03-8.88 14.49-8.88 22.38 0 9.63 3.22 17 9.68 22.1 6.45 5.11 19.74 10.88 39.86 17.33 14.82 4.62 25.93 9.1 33.29 13.43 7.36 4.34 13.55 10.4 18.56 18.2 5 7.8 7.51 16.18 7.51 25.13 0 15.21-6.3 28.84-18.92 40.87-12.62 12.04-28.07 18.06-46.36 18.06-16.47 0-33.03-5.15-49.69-15.45-3.27 2.69-5.39 5.87-6.35 9.53-.77 3.08-2.03 4.62-3.76 4.62-1.54 0-2.65-1.98-3.32-5.92-.67-3.95-2.07-22.63-4.18-56.05.39-1.15 1.39-1.73 3.03-1.73 1.45 0 2.59 1.07 3.47 3.18 14.82 37.26 35.53 55.89 62.1 55.89 13.2 0 23.53-3.97 30.99-11.92 7.46-7.94 11.19-17.06 11.19-27.37 0-7.12-1.99-13.68-5.99-19.65-4-5.96-9.29-10.77-15.89-14.44-6.59-3.65-17.02-7.75-31.27-12.27-18.3-5.87-30.74-11.44-37.33-16.68-6.6-5.25-11.44-11.17-14.52-17.77-3.08-6.59-4.62-12.97-4.62-19.13 0-12.8 5.8-24.17 17.4-34.08 11.6-9.92 25.82-14.88 42.68-14.88 6.36 0 13.02 1.01 20.01 3.03 6.96 2.03 14.26 5.11 21.87 9.25Zm90.99-19.07c.29 12.12.52 24.24.72 36.37l-.29 89.91.57 43.58c0 8.28 1.18 14.24 3.54 17.9 2.36 3.65 7.44 5.82 15.24 6.49 3.08.29 4.62 1.2 4.62 2.74 0 1.64-1.25 2.46-3.75 2.46-.67 0-1.5-.05-2.46-.14-9.91-.96-21.76-1.45-35.53-1.45-8.38 0-15.11.43-20.22 1.28-1.06.11-2.02.16-2.88.16-2.89 0-4.34-.89-4.34-2.68 0-1.68 1.3-2.57 3.9-2.67 8.76-.1 14.52-2.62 17.27-7.59 2.74-4.96 4.11-13.26 4.11-24.92l-.43-82.32c-.1-26.48-.46-42.29-1.09-47.45-.63-5.15-2.62-9.46-5.99-12.93-3.38-3.47-8.09-5.67-14.16-6.64-3.75-.57-5.63-1.59-5.63-3.03 0-1.63 1.54-2.55 4.62-2.74 17.62-1.16 30.85-3.28 39.71-6.36h2.47v.03Zm115.54 179.39c-4.72 6.84-10.35 11.97-16.9 15.38-6.55 3.42-13.96 5.13-22.24 5.13-9.73 0-17.36-2.59-22.9-7.8-5.54-5.2-8.31-12.04-8.31-20.52 0-6.36 1.66-12.27 4.98-17.77 3.32-5.49 7.13-9.44 11.41-11.84 4.28-2.41 11.82-5.45 22.6-9.1 15.41-5.11 24.65-9.34 27.74-12.71 3.08-3.37 4.62-7.76 4.62-13.17 0-8.59-2.02-15.28-6.06-20.07-4.05-4.78-9.78-7.17-17.19-7.17-6.07 0-10.64 1.36-13.73 4.07-3.08 2.8-5.44 8.26-7.08 16.39-1.73 8.9-5.54 13.34-11.4 13.34-2.13 0-4.46-1.06-7.01-3.18-2.55-2.11-3.83-5.24-3.83-9.38 0-7.23 4-13.5 11.99-18.85 7.99-5.35 18.97-8.02 32.94-8.02 11.07 0 19.91 1.57 26.5 4.7 6.6 3.13 10.74 6.73 12.43 10.77 1.68 4.05 2.52 11.86 2.52 23.43l-.86 38.18c0 14.75.89 25.23 2.67 31.45 1.79 6.21 5.08 9.32 9.89 9.32.96 0 2.31-.14 4.04-.43l2.46-.29c2.21 0 3.32.81 3.32 2.42 0 3.68-9.48 5.53-28.45 5.53-5.49 0-9.17-1.28-11.04-3.83-1.88-2.58-2.92-7.89-3.11-15.98Zm0-56.33c-2.89 3.75-9.44 8.32-19.65 13.72-10.11 5.2-17.38 10.16-21.81 14.88-4.43 4.81-6.64 10.59-6.64 17.33 0 6.07 1.8 11.21 5.41 15.45 3.62 4.24 8.12 6.36 13.5 6.36 5.58 0 10.84-1.71 15.75-5.13s8.54-7.78 10.9-13.07c2.36-5.3 3.54-13.15 3.54-23.54.01-7.8-.32-16.47-1-26Zm121.39 49.4c20.75-45.74 31.13-73.71 31.13-83.92 0-4.43-2.69-6.83-8.09-7.22-3.18-.19-4.77-1.06-4.77-2.59 0-1.93 1.2-2.89 3.61-2.89l21.67.29 13-.14c3.08 0 4.62.96 4.62 2.89 0 1.45-1.11 2.26-3.32 2.45-7.9.87-13.63 4.21-17.19 10.04-3.56 5.83-8.37 16.49-14.42 31.99-10.19 26.19-17.59 44.15-22.21 53.87-4.52 9.34-7.17 15.31-7.93 17.9-1.16 3.28-2.56 4.91-4.19 4.91-1.16 0-2.6-2.02-4.34-6.06l-17.21-37.26-17.93-40.01c-6.08-13.68-10.42-22.46-13.01-26.36-2.6-3.9-4.53-6.26-5.78-7.08-1.25-.82-3.61-1.52-7.08-2.09-2.22-.39-3.32-1.3-3.32-2.75 0-1.92 1.39-2.88 4.19-2.88l25.12.29c11.84 0 18.49-.04 19.93-.14 3.37 0 5.06.92 5.06 2.74 0 1.45-1.73 2.46-5.2 3.03-4.91.87-7.36 3.38-7.36 7.52 0 7.49 11.68 35.32 35.02 83.47Zm146.1 6.93c-4.72 6.84-10.35 11.97-16.9 15.38-6.55 3.42-13.96 5.13-22.24 5.13-9.73 0-17.36-2.59-22.9-7.8-5.54-5.2-8.31-12.04-8.31-20.52 0-6.36 1.66-12.27 4.98-17.77 3.32-5.49 7.13-9.44 11.41-11.84 4.28-2.41 11.82-5.45 22.6-9.1 15.41-5.11 24.65-9.34 27.74-12.71 3.08-3.37 4.62-7.76 4.62-13.17 0-8.59-2.02-15.28-6.06-20.07-4.05-4.78-9.78-7.17-17.19-7.17-6.07 0-10.64 1.36-13.73 4.07-3.08 2.8-5.44 8.26-7.08 16.39-1.73 8.9-5.54 13.34-11.4 13.34-2.13 0-4.46-1.06-7.01-3.18-2.55-2.11-3.83-5.24-3.83-9.38 0-7.23 4-13.5 11.99-18.85 7.99-5.35 18.97-8.02 32.94-8.02 11.07 0 19.91 1.57 26.5 4.7 6.6 3.13 10.74 6.73 12.43 10.77 1.68 4.05 2.52 11.86 2.52 23.43l-.86 38.18c0 14.75.89 25.23 2.67 31.45 1.79 6.21 5.08 9.32 9.89 9.32.96 0 2.31-.14 4.04-.43l2.46-.29c2.21 0 3.32.81 3.32 2.42 0 3.68-9.48 5.53-28.45 5.53-5.49 0-9.17-1.28-11.04-3.83-1.89-2.58-2.92-7.89-3.11-15.98Zm0-56.33c-2.89 3.75-9.44 8.32-19.65 13.72-10.11 5.2-17.38 10.16-21.81 14.88-4.43 4.81-6.64 10.59-6.64 17.33 0 6.07 1.8 11.21 5.41 15.45 3.62 4.24 8.12 6.36 13.5 6.36 5.58 0 10.84-1.71 15.75-5.13s8.54-7.78 10.9-13.07c2.36-5.3 3.54-13.15 3.54-23.54.01-7.8-.33-16.47-1-26Z" fill="#515252"/></svg>