<svg width="31" height="30" viewBox="0 0 31 30" fill="none" xmlns="http://www.w3.org/2000/svg">
<path fill-rule="evenodd" clip-rule="evenodd" d="M15.5 3.75C12.4445 3.75 12.062 3.76275 10.862 3.8175C9.66425 3.87225 8.846 4.06275 8.1305 4.341C7.3805 4.623 6.70025 5.0655 6.13775 5.6385C5.56567 6.20035 5.12289 6.88012 4.84025 7.6305C4.5635 8.346 4.37225 9.165 4.3175 10.3628C4.2635 11.562 4.25 11.9438 4.25 15C4.25 18.0562 4.26275 18.438 4.3175 19.638C4.37225 20.8358 4.56275 21.654 4.841 22.3695C5.123 23.1195 5.5655 23.7997 6.1385 24.3622C6.70037 24.9343 7.38013 25.3771 8.1305 25.6597C8.846 25.9373 9.66425 26.1278 10.862 26.1825C12.062 26.2372 12.4445 26.25 15.5 26.25C18.5555 26.25 18.938 26.2372 20.138 26.1825C21.3358 26.1278 22.154 25.9373 22.8695 25.659C23.6195 25.377 24.2997 24.9345 24.8622 24.3615C25.4343 23.7997 25.8771 23.1199 26.1597 22.3695C26.4373 21.654 26.6278 20.8358 26.6825 19.638C26.7372 18.438 26.75 18.0555 26.75 15C26.75 11.9445 26.7372 11.562 26.6825 10.362C26.6278 9.16425 26.4373 8.346 26.159 7.6305C25.8766 6.8798 25.4338 6.19974 24.8615 5.63775C24.2997 5.06567 23.6199 4.62289 22.8695 4.34025C22.154 4.0635 21.335 3.87225 20.1373 3.8175C18.938 3.7635 18.5562 3.75 15.5 3.75ZM15.5 5.77725C18.5037 5.77725 18.86 5.7885 20.0465 5.8425C21.143 5.89275 21.7385 6.075 22.1353 6.23025C22.6602 6.4335 23.0352 6.678 23.429 7.071C23.8228 7.46475 24.0665 7.83975 24.2698 8.36475C24.4242 8.7615 24.6073 9.357 24.6575 10.4535C24.7115 11.64 24.7228 11.9963 24.7228 15C24.7228 18.0037 24.7115 18.36 24.6575 19.5465C24.6073 20.643 24.425 21.2385 24.2698 21.6353C24.0897 22.1239 23.8024 22.566 23.429 22.929C23.0661 23.3025 22.624 23.5898 22.1353 23.7698C21.7385 23.9242 21.143 24.1073 20.0465 24.1575C18.86 24.2115 18.5045 24.2228 15.5 24.2228C12.4955 24.2228 12.14 24.2115 10.9535 24.1575C9.857 24.1073 9.2615 23.925 8.86475 23.7698C8.37609 23.5897 7.934 23.3024 7.571 22.929C7.19763 22.566 6.91035 22.1239 6.73025 21.6353C6.57575 21.2385 6.39275 20.643 6.3425 19.5465C6.2885 18.36 6.27725 18.0037 6.27725 15C6.27725 11.9963 6.2885 11.64 6.3425 10.4535C6.39275 9.357 6.575 8.7615 6.73025 8.36475C6.9335 7.83975 7.178 7.46475 7.571 7.071C7.93396 6.69753 8.37606 6.41023 8.86475 6.23025C9.2615 6.07575 9.857 5.89275 10.9535 5.8425C12.14 5.7885 12.4963 5.77725 15.5 5.77725Z" fill="#588ED6"/>
<path fill-rule="evenodd" clip-rule="evenodd" d="M15.5 18.7537C15.0071 18.7537 14.519 18.6566 14.0635 18.468C13.6081 18.2794 13.1943 18.0029 12.8457 17.6543C12.4972 17.3057 12.2207 16.8919 12.032 16.4365C11.8434 15.9811 11.7463 15.4929 11.7463 15C11.7463 14.507 11.8434 14.0189 12.032 13.5635C12.2207 13.1081 12.4972 12.6942 12.8457 12.3457C13.1943 11.9971 13.6081 11.7206 14.0635 11.532C14.519 11.3433 15.0071 11.2462 15.5 11.2462C16.4956 11.2462 17.4504 11.6417 18.1543 12.3457C18.8583 13.0496 19.2538 14.0044 19.2538 15C19.2538 15.9955 18.8583 16.9503 18.1543 17.6543C17.4504 18.3582 16.4956 18.7537 15.5 18.7537ZM15.5 9.21748C13.9664 9.21748 12.4956 9.82671 11.4112 10.9111C10.3268 11.9956 9.71753 13.4664 9.71753 15C9.71753 16.5336 10.3268 18.0044 11.4112 19.0888C12.4956 20.1733 13.9664 20.7825 15.5 20.7825C17.0336 20.7825 18.5044 20.1733 19.5889 19.0888C20.6733 18.0044 21.2825 16.5336 21.2825 15C21.2825 13.4664 20.6733 11.9956 19.5889 10.9111C18.5044 9.82671 17.0336 9.21748 15.5 9.21748ZM22.9648 9.11248C22.9648 9.475 22.8208 9.82267 22.5644 10.079C22.3081 10.3353 21.9604 10.4794 21.5979 10.4794C21.2354 10.4794 20.8877 10.3353 20.6314 10.079C20.375 9.82267 20.231 9.475 20.231 9.11248C20.231 8.74996 20.375 8.40229 20.6314 8.14595C20.8877 7.88962 21.2354 7.74561 21.5979 7.74561C21.9604 7.74561 22.3081 7.88962 22.5644 8.14595C22.8208 8.40229 22.9648 8.74996 22.9648 9.11248Z" fill="#588ED6"/>
</svg>
