<svg width="49" height="49" viewBox="0 0 49 49" fill="none" xmlns="http://www.w3.org/2000/svg">
<path d="M36.9899 20.3403C36.9899 17.0307 35.674 13.8567 33.3317 11.5164C30.9894 9.17619 27.8125 7.86146 24.5 7.86146C21.1875 7.86146 18.0106 9.17619 15.6683 11.5164C13.326 13.8567 12.0101 17.0307 12.0101 20.3403C12.0101 25.4594 16.1096 32.1314 24.5 40.1234C32.8904 32.1314 36.9899 25.4594 36.9899 20.3403ZM24.5 43.9115C14.3222 34.6688 9.23462 26.8099 9.23462 20.3403C9.23462 16.2952 10.8429 12.4159 13.7057 9.55556C16.5686 6.69527 20.4514 5.08838 24.5 5.08838C28.5486 5.08838 32.4314 6.69527 35.2943 9.55556C38.1571 12.4159 39.7654 16.2952 39.7654 20.3403C39.7654 26.8099 34.6779 34.6688 24.5 43.9115Z" fill="#FFDF6B"/>
<path d="M24.5 24.5C25.7183 24.5 26.8868 24.016 27.7483 23.1545C28.6098 22.293 29.0938 21.1246 29.0938 19.9062C29.0938 18.6879 28.6098 17.5195 27.7483 16.658C26.8868 15.7965 25.7183 15.3125 24.5 15.3125C23.2817 15.3125 22.1132 15.7965 21.2517 16.658C20.3902 17.5195 19.9062 18.6879 19.9062 19.9062C19.9062 21.1246 20.3902 22.293 21.2517 23.1545C22.1132 24.016 23.2817 24.5 24.5 24.5ZM24.5 27.5625C22.4694 27.5625 20.522 26.7559 19.0862 25.32C17.6504 23.8842 16.8438 21.9368 16.8438 19.9062C16.8438 17.8757 17.6504 15.9283 19.0862 14.4925C20.522 13.0566 22.4694 12.25 24.5 12.25C26.5306 12.25 28.478 13.0566 29.9138 14.4925C31.3496 15.9283 32.1562 17.8757 32.1562 19.9062C32.1562 21.9368 31.3496 23.8842 29.9138 25.32C28.478 26.7559 26.5306 27.5625 24.5 27.5625Z" fill="#FFDF6B"/>
</svg>
