<svg width="35" height="35" viewBox="0 0 35 35" fill="none" xmlns="http://www.w3.org/2000/svg">
<path d="M32.8313 6.02353L28.3592 1.55557C27.8133 1.00967 27.0826 0.703125 26.31 0.703125C25.5373 0.703125 24.8066 1.00547 24.2607 1.55557L19.4442 6.36367C18.8983 6.90957 18.5918 7.64443 18.5918 8.41709C18.5918 9.19394 18.8941 9.92041 19.4442 10.4705L23.2067 14.2372C22.3496 16.2343 21.1181 18.0488 19.5786 19.5828C18.0375 21.1323 16.236 22.3543 14.2372 23.2193L10.4747 19.4526C9.92881 18.9067 9.19814 18.6002 8.42549 18.6002C8.04438 18.5988 7.66682 18.6735 7.31494 18.8198C6.96306 18.9662 6.64394 19.1813 6.37627 19.4526L1.55557 24.2607C1.00967 24.8066 0.703125 25.5415 0.703125 26.3142C0.703125 27.091 1.00547 27.8175 1.55557 28.3676L6.02354 32.8355C6.95576 33.7678 8.24072 34.3011 9.55928 34.3011C9.83223 34.3011 10.0968 34.2801 10.3655 34.2339C15.9253 33.3185 21.4431 30.358 25.8984 25.9068C30.3496 21.4473 33.3059 15.9295 34.2297 10.3655C34.4942 8.78662 33.9651 7.16152 32.8313 6.02353ZM31.2524 9.86582C30.4336 14.8167 27.7713 19.755 23.761 23.7652C19.7508 27.7755 14.8167 30.4378 9.86582 31.2566C9.24434 31.3616 8.60605 31.1517 8.15254 30.7023L3.76436 26.3142L8.41709 21.6572L13.4478 26.6963L13.4855 26.7341L14.3926 26.3981C17.1428 25.387 19.6402 23.7899 21.7118 21.7176C23.7834 19.6453 25.3796 17.1473 26.3897 14.3968L26.7257 13.4897L21.653 8.42129L26.3058 3.76435L30.6939 8.15254C31.1475 8.60605 31.3574 9.24434 31.2524 9.86582Z" fill="#FFDF6B"/>
</svg>
