<svg version="1.1" id="Warstwa_1" xmlns="http://www.w3.org/2000/svg" x="0" y="0" viewBox="-102 246.4 237 80.6" xml:space="preserve"><style>.st1{fill:#fff}.st2{enable-background:new}</style><path d="M-62.8 265.6c-1.2 0-2.3.8-2.7 1.9l-13.6 32.6c-.4.9-.4 1.9.2 2.8.5.8 1.4 1.3 2.4 1.3.5 0 1-.2 1.5-.4.5-.3.9-.8 1.1-1.3l4.1-10h14.2l4 10c.2.5.6 1 1.1 1.3s1 .5 1.6.5c1 .1 1.9-.4 2.4-1.2.5-.8.6-1.9.2-2.8L-60 267.6c-.4-1.3-1.5-2.1-2.8-2m-5.2 22.3 5.3-13 5.2 13H-68z" fill="#3db28d"/><path class="st1" d="M-62.4 323.4c19.9-.2 35.9-16.5 35.8-36.4-.1-6.6-1.9-13.1-5.4-18.7-.5-.8-1.4-1.3-2.3-1.3-1.5 0-2.7 1.2-2.7 2.7 0 .5.1 1 .4 1.4 3.2 5.2 4.8 11.3 4.6 17.5-.7 15.2-14 28.6-29.2 29.3-17 .8-31.4-12.3-32.2-29.2v-2.9c.7-15.2 14.1-28.6 29.3-29.2 6.2-.3 12.3 1.3 17.5 4.6 1.3.8 2.9.4 3.7-.9.3-.4.4-.9.4-1.4 0-.9-.5-1.8-1.3-2.3-17-10.5-39.2-5.2-49.7 11.7s-5.2 39.2 11.7 49.7c5.7 3.5 12.3 5.4 19 5.4h.4m69.6-36.3c.4-.6.5-1.4.1-2.1l-9.5-22.8c-.3-.9-1.1-1.5-2-1.4-.9 0-1.7.6-2 1.4l-9.5 22.7c-.3.7-.3 1.5.1 2.1s1.1 1 1.8 1c.4 0 .8-.1 1.1-.3.4-.2.7-.6.8-1l2.8-6.9H.6l2.8 6.9c.2.4.4.8.8 1 .3.2.8.3 1.2.3.8 0 1.4-.3 1.8-.9m-14.8-10.8 3.4-8.4 3.4 8.4h-6.8zm22.7-3.3c1-.4 2.1-.6 3.2-.6.3 0 .6 0 .9-.1.3-.1.5-.3.7-.6s.3-.6.3-1c0-.8-.5-1.4-1.2-1.7-1-.4-2-.4-3-.2s-2 .6-2.8 1.2c0-.4-.2-.8-.5-1.1-.4-.4-1-.6-1.5-.5-.6 0-1.1.2-1.5.6-.4.4-.6 1-.6 1.5v15.4c0 .6.2 1.1.6 1.6.4.4 1 .6 1.5.5.6 0 1.1-.2 1.6-.6.4-.4.6-1 .5-1.5v-11.4c.4-.7 1-1.2 1.8-1.5m17.1 10.8h-1.1c-.6 0-1.2-.3-1.5-.8-.4-.6-.7-1.3-.6-2v-8.4h2.6c.5 0 1-.2 1.4-.5s.6-.8.6-1.3-.2-1-.6-1.4c-.4-.3-.9-.5-1.4-.5H29v-4c.1-1.1-.8-2-1.9-2.1h-.2c-.6 0-1.1.2-1.5.6-.4.4-.6.9-.6 1.5v4h-1c-.5 0-1 .2-1.4.5-.4.4-.6.9-.6 1.4s.2 1 .6 1.3c.4.3.9.5 1.4.5h1v8.5c0 1.2.3 2.4.8 3.5.5 1 1.3 1.9 2.3 2.5s2.1.9 3.3.9h.6c.6 0 1.2-.2 1.7-.6s.7-.9.7-1.5c0-.5-.2-1.1-.5-1.5-.5-.4-1-.6-1.5-.6m57.4-.6c.8-1.5 1.2-3.3 1.2-5 0-1.8-.4-3.5-1.3-5-1.7-3-5-4.9-8.4-4.8-1.7 0-3.4.4-4.9 1.3-1.4.8-2.6 2.1-3.5 3.5-.9 1.5-1.3 3.2-1.3 5v15.4c0 1.2 1 2.1 2.2 2.1.5 0 1-.2 1.4-.6s.6-.9.6-1.5v-8.1c.7.6 1.4 1.2 2.3 1.6 2.7 1.3 5.9 1.1 8.5-.4 1.3-.9 2.4-2.1 3.2-3.5m-3.6-1.9c-.5.9-1.2 1.6-2 2.1-1.8 1-4 1-5.7 0-.8-.5-1.5-1.2-2-2.1-.5-.9-.7-2-.7-3 0-1.1.2-2.1.7-3.1.5-.9 1.2-1.6 2-2.1 1.8-1.1 4-1.1 5.7-.1.8.5 1.5 1.3 2 2.1.5.9.8 2 .7 3.1 0 1-.2 2.1-.7 3.1m23.1 3.2c0-.5-.3-1-.8-1.4-.4-.3-.8-.5-1.3-.5s-.9.2-1.3.5c-.5.4-1.1.6-1.7.8-.6.2-1.3.4-2 .4-1.1 0-2.2-.3-3.2-.8-.9-.5-1.7-1.3-2.2-2.2-.3-.5-.5-1-.6-1.5h12.4c.5 0 1-.2 1.4-.5.4-.4.6-.8.6-1.3 0-1.7-.3-3.4-1-4.9-.7-1.4-1.7-2.6-3-3.4-1.4-.8-3.1-1.3-4.7-1.2-1.7 0-3.4.4-4.9 1.3-1.4.8-2.6 2-3.4 3.5-.9 1.6-1.3 3.3-1.3 5.1s.4 3.5 1.3 5.1c.9 1.5 2.1 2.7 3.6 3.5 2.6 1.4 5.7 1.6 8.6.6 1.1-.3 2.1-.9 3-1.5.3-.6.6-1.1.5-1.6m-12.6-9.4c.4-.9 1.1-1.6 1.9-2.2.9-.6 2-.8 3.1-.8.9 0 1.9.2 2.7.7.7.5 1.3 1.2 1.7 2 .2.5.4 1 .5 1.5H96.1c.1-.4.2-.8.4-1.2m27.3-.5c.5.9.7 2 .7 3v8.4c0 1.2 1 2.1 2.2 2.1.6 0 1.1-.2 1.5-.6.4-.4.6-1 .6-1.5v-8.4c.1-1.7-.3-3.4-1.1-4.9-.7-1.3-1.8-2.4-3.1-3.1-1.3-.7-2.8-1.1-4.4-1.1-1.5 0-2.9.3-4.2 1l-.4.2c-.1-.2-.2-.4-.4-.5-.8-.8-2.2-.9-3 0-.4.4-.7 1-.6 1.6V286c0 1.2 1 2.1 2.2 2.1.5 0 1.1-.2 1.5-.6.4-.4.6-.9.6-1.5v-12c.4-.4.8-.8 1.3-1 .7-.4 1.6-.6 2.4-.5.9 0 1.8.2 2.6.6.6.2 1.2.7 1.6 1.5m-57.3-10.4c-1.3-1.3-2.8-2.3-4.5-2.9-3.6-1.4-7.7-1.4-11.3 0-1.7.7-3.2 1.7-4.4 2.9-1.3 1.3-2.2 2.8-2.9 4.5-1.4 3.7-1.4 7.7 0 11.3.6 1.7 1.6 3.2 2.9 4.5 1.3 1.3 2.8 2.3 4.4 2.9 3.6 1.4 7.7 1.4 11.3 0 1.7-.7 3.2-1.7 4.4-2.9 1.3-1.3 2.3-2.8 2.9-4.5 1.4-3.7 1.4-7.7 0-11.3-.6-1.7-1.6-3.2-2.8-4.5m-1.4 14c-.4 1.2-1.1 2.2-2 3.1s-1.9 1.6-3 2.1c-2.4 1-5.2 1-7.6 0-1.1-.5-2.1-1.2-3-2.1s-1.5-2-2-3.1c-.9-2.5-.9-5.3 0-7.8.5-1.2 1.1-2.2 2-3.1.9-.9 1.9-1.5 3-2 2.4-1 5.2-1 7.6 0 1.1.5 2.1 1.1 3 2 .9.9 1.6 1.9 2 3.1.9 2.6.9 5.3 0 7.8"/><g class="st2"><path class="st1" d="m-.9 301-3.3 9.8h-1.1l-2.9-8.3-2.9 8.3h-1.1l-3.3-9.8h1.1l2.8 8.4 2.9-8.4h1l2.9 8.5 2.9-8.5h1z"/></g><g class="st2"><path class="st1" d="M5.8 310.5c-.7-.2-1.2-.5-1.5-.9l.4-.8c.4.4.8.6 1.4.9.6.2 1.2.3 1.8.3.9 0 1.5-.2 2-.5.4-.3.7-.7.7-1.3 0-.4-.1-.7-.4-.9-.2-.2-.5-.4-.9-.5-.3-.1-.8-.3-1.4-.4-.7-.2-1.3-.4-1.8-.5-.4-.2-.8-.4-1.1-.8s-.5-.8-.5-1.4c0-.5.1-.9.4-1.3.3-.4.7-.7 1.2-1 .5-.2 1.2-.4 2-.4.6 0 1.1.1 1.6.2.5.2 1 .4 1.4.6l-.3.8c-.4-.3-.8-.5-1.3-.6s-.9-.2-1.4-.2c-.9 0-1.5.2-1.9.5s-.7.8-.7 1.3c0 .4.1.7.4.9.2.2.5.4.9.5s.8.3 1.4.4c.7.2 1.3.4 1.7.5.4.2.8.4 1.1.8.3.3.5.8.5 1.4 0 .5-.1.9-.4 1.3s-.7.7-1.2 1c-.5.2-1.2.4-2 .4-.8.1-1.5-.1-2.1-.3z"/></g><g class="st2"><path class="st1" d="M24.5 301.9c.7.6 1.1 1.4 1.1 2.5s-.4 1.9-1.1 2.5-1.7.9-2.9.9H19v3.1h-1v-9.8h3.7c1.2-.1 2.1.2 2.8.8zm-.7 4.2c.5-.4.8-1 .8-1.8s-.3-1.4-.8-1.8-1.3-.6-2.2-.6H19v4.9h2.6c.9 0 1.7-.2 2.2-.7z"/></g><g class="st2"><path class="st1" d="M32 301h1v9.8h-1V301zm15.4 8.9v.9h-6.9V301h6.7v.9h-5.7v3.5h5.1v.9h-5.1v3.6h5.9zm13.3.9-2.2-3.1H55v3.1h-1V301h3.7c1.2 0 2.2.3 2.9.9.7.6 1.1 1.4 1.1 2.5 0 .8-.2 1.4-.6 1.9s-.9.9-1.7 1.1l2.4 3.4h-1.1zm-.8-4.7c.5-.4.8-1 .8-1.8s-.3-1.4-.8-1.8-1.3-.6-2.2-.6H55v4.9h2.6c1 0 1.7-.2 2.3-.7zm14.5 2.1H69l-1.2 2.6h-1.1l4.5-9.8h1l4.5 9.8h-1.1l-1.2-2.6zm-.3-.9-2.3-5.3-2.3 5.3h4.6zm18.6-6.3v9.8h-1V303l-3.8 6.6h-.5l-3.8-6.5v7.8h-1v-9.8h.9l4.2 7.3 4.2-7.3h.8v-.1zm10.7 6.4v3.4h-1v-3.4l-3.9-6.4h1.1l3.4 5.5 3.4-5.5h1l-4 6.4z"/></g><path d="M115.9 300.2h12.7c.9 0 1.6.7 1.6 1.6v7.4c0 .9-.7 1.6-1.6 1.6h-12.7c-.9 0-1.6-.7-1.6-1.6v-7.4c.1-.9.8-1.6 1.6-1.6z" fill="#215ca8"/><path d="M116 310.8h12.6c.9 0 1.6-.7 1.6-1.6v-3.7h-15.9v3.7c.1.9.8 1.6 1.7 1.6z" fill="#ffd504"/></svg>