<svg xmlns="http://www.w3.org/2000/svg" viewBox="0 0 500 500"><path d="M252 470.2c58.2-.7 113.6-23.3 155.3-64.3s65.7-95.8 67-153.9c1.4-43.8-10.3-86.9-33.5-124.5-2.7-4.8-8.2-7.5-14.4-7.5-6.2 0-11.6 3.4-14.4 8.9-2.7 5.5-2.7 11.6.7 17.1 20.5 32.8 30.1 70.5 28 108.8-4.1 94.4-87.6 177.9-182 182.7-54 2.7-106-17.8-144.4-56.1s-58.2-91-56.1-144.4C63 142.6 146.5 59.1 240.9 55c38.3-1.4 75.9 8.2 108.8 28 5.5 3.4 11.6 3.4 17.1.7 5.5-2.7 8.9-8.2 8.9-14.4 0-5.5-2.7-10.9-7.5-14.4-37.6-23.3-80-34.9-124.5-33.5-58.2 1.4-112.9 25.3-153.9 67s-64.3 97.1-64.3 155.3c-.7 60.9 22.6 117.7 65.7 160.8 42.4 42.4 99.2 65.7 158.7 65.7h2.1" fill="#404040"/><path d="M250 109.7c-7.5 0-13.7 4.1-16.4 11.6l-84.8 203.2c-2.7 6.2-2.1 11.6 1.4 17.1 3.4 5.5 8.2 8.2 15.1 8.2 3.4 0 6.2-.7 9.6-2.7 3.4-2.1 5.5-4.8 6.8-8.2l25.3-62.3h88.3l25.3 62.3c1.4 3.4 3.4 6.2 6.8 8.2 2.7 2.1 6.2 2.7 9.6 2.7 6.8 0 11.6-2.7 15.1-7.5 3.4-4.8 3.4-10.9 1.4-17.1L267.7 122c-4.1-8.2-9.5-12.3-17.7-12.3m-32.2 138.8 32.8-80.7 32.2 80.7h-65z" fill="#23c495"/></svg>