<svg width="68" height="59" viewBox="0 0 620 342" fill="none" xmlns="http://www.w3.org/2000/svg">
<path d="M32.57 58.92L32.33 78.88C32.33 92.83 32.55 100.64 32.98 102.27C33.41 103.92 34.34 105.62 35.76 107.37C37.19 109.12 40.17 110.13 44.69 110.4C47.11 110.51 48.33 111.1 48.33 112.18C48.33 113.37 47.47 113.96 45.74 113.96C45.09 113.96 43.4 113.83 40.65 113.56C35.05 113.02 30.09 112.75 25.78 112.75C22.12 112.75 17.03 112.95 10.51 113.33L5.98001 113.55C4.26001 113.55 3.39001 113.01 3.39001 111.93C3.39001 110.85 4.66003 110.31 7.19003 110.31C10.64 110.31 13.12 109.34 14.62 107.4C16.12 105.46 17.11 100.52 17.57 92.57C18.02 84.63 18.25 74.14 18.25 61.1C18.25 48.82 18.03 39.14 17.6 32.05C17.17 24.96 16.56 20.31 15.79 18.11C15 15.9 13.83 14.33 12.27 13.38C10.71 12.45 7.74004 11.84 3.38004 11.57C1.66004 11.46 0.790039 10.94 0.790039 10C0.790039 9.16 1.54002 8.69002 3.05002 8.58002C16.52 7.50002 41.97 6.96002 79.42 6.96002C85.83 6.96002 89.32 7.05999 89.88 7.23999C90.45 7.43999 90.85 7.78999 91.1 8.29999C91.33 8.80999 92.07 12.54 93.27 19.49C94.49 26.44 95.09 30.08 95.09 30.4C95.09 31.53 94.61 32.1 93.64 32.1C92.95 32.1 92.28 31.56 91.64 30.48C84.03 17.28 71.7 10.68 54.61 10.68C48.74 10.68 43.98 10.94 40.34 11.44C36.7 11.96 34.58 12.57 33.99 13.31C33.4 14.03 33 17.41 32.81 23.45C32.62 29.49 32.53 40.02 32.53 55.05C36.79 55.27 39.73 55.37 41.35 55.37C49.12 55.37 54.52 53.72 57.57 50.4C60.61 47.1 62.22 43.66 62.38 40.1C62.49 37.73 63.1 36.54 64.22 36.54C65.4 36.54 65.99 37.35 65.99 38.96C65.99 39.5 65.93 40.17 65.81 40.98C65.39 44.1 65.18 52.1 65.18 64.98V74.35C65.18 76.61 64.51 77.74 63.18 77.74C62.05 77.74 61.47 76.9 61.41 75.23C61.25 70.38 59.71 66.41 56.81 63.31C53.9 60.22 48.18 58.67 39.62 58.67C38.27 58.67 35.9 58.75 32.57 58.92Z" fill="#515252"/>
<path d="M124.45 44.85C124.72 48.35 124.96 58.48 125.18 75.24C125.29 85.69 125.56 92.66 125.99 96.13C126.42 99.61 127.78 102.48 130.08 104.74C132.36 107 134.99 108.13 137.95 108.13C141.83 108.13 145.72 106.33 149.63 102.72C153.53 99.11 155.94 95.25 156.86 91.12C157.78 87.01 158.23 77.53 158.23 62.72C158.23 55.82 157.8 51.65 156.94 50.19C156.08 48.74 153.98 47.9 150.64 47.68C149.4 47.63 148.78 47.17 148.78 46.31C148.78 45.72 148.97 45.33 149.35 45.14C149.73 44.95 150.94 44.85 152.99 44.85H169.15C169.63 50.72 169.88 57.3 169.88 64.57L169.23 94.96C169.23 101.21 169.75 105.14 170.81 106.76C171.85 108.38 173.51 109.29 175.78 109.51C177.18 109.73 177.88 110.26 177.88 111.13C177.88 112.1 176.51 112.58 173.76 112.58H160.99C158.78 112.58 157.68 111.85 157.68 110.4C157.68 109.97 157.71 109.48 157.76 108.95C157.92 107.33 158 105.69 158 104.02C158 102.62 157.92 100.57 157.76 97.88C153.67 103.16 149.41 107.12 144.99 109.76C140.57 112.4 135.97 113.72 131.17 113.72C127.08 113.72 123.64 112.72 120.87 110.73C118.09 108.74 116.25 106.32 115.37 103.5C114.47 100.66 113.87 93.62 113.55 82.36C113.23 71.1 113.07 62.26 113.07 55.85C113.07 52.35 112.88 50.17 112.5 49.3C112.12 48.43 110.94 47.95 108.94 47.85C106.79 47.69 105.71 47.15 105.71 46.23C105.71 45.31 107 44.86 109.59 44.86H124.45V44.85Z" fill="#515252"/>
<path d="M209.63 43.56C210.92 46.74 211.7 52.1 211.97 59.64C215.31 54.36 219.01 50.4 223.09 47.76C227.15 45.12 231.58 43.8 236.38 43.8C240.04 43.8 243.58 44.49 247.01 45.86C250.42 47.23 253.06 49.6 254.93 52.96C256.78 56.33 257.71 62.04 257.71 70.11L257.23 97.32C257.23 102.32 257.64 105.46 258.49 106.72C259.32 107.99 261.11 108.99 263.86 109.75C265.75 110.29 266.69 110.88 266.69 111.53C266.69 112.34 266.23 112.74 265.32 112.74C264.94 112.74 264.57 112.71 264.19 112.67C261.71 112.18 258.05 111.93 253.2 111.93C248.84 111.93 244.15 112.12 239.14 112.5C237.15 112.5 236.15 112.04 236.15 111.13C236.15 110.48 236.69 110.05 237.77 109.84C240.73 109.19 242.67 108.52 243.59 107.82C244.51 107.12 245.15 106.19 245.53 105.04C245.91 103.88 246.22 100 246.45 93.39C246.7 86.77 246.82 81.38 246.82 77.25C246.82 65.9 245.39 58.34 242.54 54.57C239.68 50.81 236.13 48.92 231.87 48.92C225.57 48.92 220.32 52.33 216.16 59.14C211.98 65.96 209.89 77.31 209.89 93.21C209.89 100.43 210.36 105.03 211.31 106.98C212.24 108.96 214.61 110.15 218.38 110.58C219.57 110.69 220.16 111.2 220.16 112.12C220.16 112.87 219.57 113.25 218.39 113.25L214.2 112.93C212.69 112.82 207.73 112.77 199.29 112.77L192.84 112.93C190.48 112.93 189.29 112.5 189.29 111.64C189.29 110.72 190.57 110.02 193.14 109.54C195.6 109.06 197.25 108.2 198.11 106.99C198.96 105.78 199.54 101.75 199.83 94.9C200.13 88.05 200.27 79.5 200.27 69.25C200.27 59.71 199.62 53.77 198.33 51.45C197.04 49.12 195.23 47.7 192.92 47.16C190.82 46.68 189.77 46 189.77 45.14C189.77 44.22 190.58 43.77 192.19 43.77L198.74 43.85C199.42 43.8 203.06 43.72 209.63 43.56Z" fill="#515252"/>
<path d="M341.19 2.10999C341.24 13.64 341.27 29.21 341.27 48.82L340.62 100.13C340.62 105.79 343.23 109.07 348.46 109.99C350.18 110.31 351.05 110.88 351.05 111.69C351.05 112.34 350.74 112.74 350.13 112.9C349.5 113.06 345.94 113.14 339.42 113.14C336.08 113.09 332.77 113.03 329.48 112.98C329.32 109.69 329.24 107.32 329.24 105.87C329.24 104.04 329.32 101.43 329.48 98.03C326.57 103.42 323.26 107.46 319.54 110.15C315.82 112.84 311.7 114.19 307.18 114.19C300.77 114.19 294.26 111.17 287.66 105.14C281.06 99.11 277.77 90.97 277.77 80.73C277.77 70.76 280.85 62.12 287.02 54.79C293.19 47.46 300.78 43.8 309.77 43.8C314.3 43.8 318.2 44.76 321.49 46.66C324.78 48.58 327.44 51.47 329.49 55.35C329.81 49 329.97 43.03 329.97 37.44C329.97 20.28 329.54 10.76 328.68 8.88C327.82 7 325.8 5.86999 322.62 5.48999C320.63 5.20999 319.63 4.69003 319.63 3.91003C319.63 2.97003 320.9 2.5 323.43 2.5L341.19 2.10999ZM329.79 74.51C329.79 65.35 328.24 58.5 325.14 53.94C322.04 49.4 317.37 47.12 311.12 47.12C304.6 47.12 299.7 49.78 296.41 55.08C293.12 60.4 291.48 68.35 291.48 78.96C291.48 89.68 293.43 97.36 297.33 101.99C301.23 106.62 305.48 108.94 310.06 108.94C314.64 108.94 319.07 106.51 323.35 101.62C327.66 96.75 329.79 87.71 329.79 74.51Z" fill="#515252"/>
<path d="M403.25 102.39C400.61 106.22 397.46 109.09 393.8 110.99C390.14 112.9 385.99 113.86 381.36 113.86C375.92 113.86 371.64 112.41 368.55 109.5C365.45 106.59 363.91 102.76 363.91 98.02C363.91 94.46 364.83 91.15 366.7 88.08C368.55 85.01 370.68 82.8 373.08 81.45C375.48 80.1 379.7 78.41 385.73 76.35C394.35 73.49 399.52 71.12 401.25 69.24C402.97 67.35 403.84 64.9 403.84 61.88C403.84 57.07 402.71 53.32 400.45 50.65C398.19 47.97 394.98 46.64 390.83 46.64C387.44 46.64 384.88 47.39 383.15 48.91C381.43 50.48 380.11 53.53 379.19 58.08C378.22 63.06 376.09 65.55 372.81 65.55C371.62 65.55 370.31 64.96 368.89 63.77C367.47 62.58 366.75 60.83 366.75 58.52C366.75 54.48 368.99 50.97 373.46 47.97C377.93 44.99 384.07 43.49 391.88 43.49C398.08 43.49 403.01 44.37 406.7 46.12C410.39 47.87 412.71 49.88 413.65 52.14C414.59 54.41 415.07 58.78 415.07 65.25L414.59 86.61C414.59 94.86 415.08 100.73 416.08 104.21C417.08 107.68 418.93 109.43 421.62 109.43C422.16 109.43 422.91 109.35 423.88 109.19L425.25 109.03C426.49 109.03 427.11 109.48 427.11 110.38C427.11 112.45 421.8 113.48 411.19 113.48C408.12 113.48 406.05 112.76 405.01 111.33C403.93 109.9 403.36 106.92 403.25 102.39ZM403.25 70.88C401.63 72.98 397.97 75.54 392.26 78.56C386.6 81.47 382.54 84.24 380.06 86.88C377.58 89.57 376.34 92.81 376.34 96.58C376.34 99.97 377.35 102.86 379.37 105.23C381.4 107.6 383.91 108.79 386.93 108.79C390.05 108.79 392.99 107.84 395.74 105.93C398.49 104.02 400.52 101.58 401.84 98.61C403.16 95.65 403.82 91.26 403.82 85.44C403.82 81.06 403.63 76.21 403.25 70.88Z" fill="#515252"/>
<path d="M433.96 80.13C433.96 70.26 437.12 61.62 443.46 54.23C449.78 46.84 457.5 43.15 466.61 43.15C472.48 43.15 478.11 44.6 483.5 47.47C488.89 50.36 491.58 53.95 491.58 58.26C491.58 59.93 491.07 61.4 490.04 62.66C489.02 63.94 487.83 64.56 486.48 64.56C483.46 64.56 481.15 62.14 479.53 57.29C477.05 49.86 472.71 46.14 466.52 46.14C460.38 46.14 455.7 48.8 452.5 54.11C449.29 59.42 447.69 66.39 447.69 75.02C447.69 85.17 449.93 93.44 454.4 99.87C458.87 106.29 464.26 109.5 470.56 109.5C474.71 109.5 478.72 107.88 482.6 104.65C486.43 101.47 488.66 97.59 489.31 93.01C489.58 91.45 490.17 90.67 491.09 90.67C492.06 90.67 492.54 91.15 492.54 92.12C492.54 97.4 490.1 102.36 485.22 106.99C480.34 111.62 473.82 113.94 465.63 113.94C456.69 113.94 449.17 110.55 443.08 103.75C436.99 96.95 433.96 89.09 433.96 80.13Z" fill="#515252"/>
<path d="M527.86 43.32C527.54 66.38 527.38 79.87 527.38 83.81C527.38 106.33 527.1 121.29 526.53 128.71C525.97 136.11 523.23 142.47 518.33 147.78C513.43 153.08 507.47 155.74 500.47 155.74C496.48 155.74 492.97 154.63 489.93 152.42C486.89 150.2 485.36 147.03 485.36 142.92C485.36 140.54 486.06 138.64 487.46 137.2C488.86 135.77 490.37 135.05 491.99 135.05C493.66 135.05 495.08 135.59 496.24 136.67C497.4 137.75 497.97 139.23 497.97 141.11C497.97 142.03 497.62 143.4 496.92 145.23C496.49 146.42 496.27 147.44 496.27 148.3C496.27 149.7 496.75 150.76 497.72 151.5C498.69 152.22 500.12 152.59 502 152.59C505.23 152.59 508.14 151.46 510.73 149.2C513.32 146.94 514.91 144.17 515.5 140.89C516.09 137.6 516.42 128.05 516.47 112.23L516.63 62.41C516.63 55.84 516.21 51.67 515.37 49.89C514.53 48.11 512.4 47.22 508.95 47.22C508.36 47.22 507.74 47.25 507.09 47.3C504.77 47.3 503.62 46.76 503.62 45.68C503.62 44.66 505.18 44.12 508.31 44.06C515.31 43.94 521.83 43.7 527.86 43.32ZM520.02 0C521.74 0 523.33 0.65998 524.79 1.97998C526.24 3.29998 526.97 4.95001 526.97 6.95001C526.97 8.89001 526.24 10.5 524.79 11.75C523.34 13.03 521.75 13.65 520.02 13.65C518.3 13.65 516.73 13.02 515.33 11.75C513.93 10.49 513.23 8.85999 513.23 6.87C513.23 5.09 513.82 3.49998 515.01 2.09998C516.2 0.699976 517.87 0 520.02 0Z" fill="#515252"/>
<path d="M589.44 102.39C586.8 106.22 583.65 109.09 579.99 110.99C576.33 112.9 572.18 113.86 567.55 113.86C562.11 113.86 557.83 112.41 554.74 109.5C551.64 106.59 550.1 102.76 550.1 98.02C550.1 94.46 551.02 91.15 552.89 88.08C554.74 85.01 556.87 82.8 559.27 81.45C561.67 80.1 565.89 78.41 571.92 76.35C580.54 73.49 585.71 71.12 587.44 69.24C589.16 67.35 590.03 64.9 590.03 61.88C590.03 57.07 588.9 53.32 586.64 50.65C584.38 47.97 581.17 46.64 577.02 46.64C573.63 46.64 571.07 47.39 569.34 48.91C567.62 50.48 566.3 53.53 565.38 58.08C564.41 63.06 562.28 65.55 559 65.55C557.81 65.55 556.5 64.96 555.08 63.77C553.66 62.58 552.94 60.83 552.94 58.52C552.94 54.48 555.18 50.97 559.65 47.97C564.12 44.99 570.26 43.49 578.07 43.49C584.27 43.49 589.2 44.37 592.89 46.12C596.58 47.87 598.9 49.88 599.84 52.14C600.78 54.41 601.26 58.78 601.26 65.25L600.78 86.61C600.78 94.86 601.27 100.73 602.27 104.21C603.27 107.68 605.12 109.43 607.81 109.43C608.35 109.43 609.1 109.35 610.07 109.19L611.44 109.03C612.68 109.03 613.3 109.48 613.3 110.38C613.3 112.45 607.99 113.48 597.38 113.48C594.31 113.48 592.24 112.76 591.2 111.33C590.12 109.9 589.55 106.92 589.44 102.39ZM589.44 70.88C587.82 72.98 584.16 75.54 578.45 78.56C572.79 81.47 568.73 84.24 566.25 86.88C563.77 89.57 562.53 92.81 562.53 96.58C562.53 99.97 563.54 102.86 565.56 105.23C567.59 107.6 570.1 108.79 573.12 108.79C576.24 108.79 579.18 107.84 581.93 105.93C584.68 104.02 586.71 101.58 588.03 98.61C589.35 95.65 590.01 91.26 590.01 85.44C590.01 81.06 589.82 76.21 589.44 70.88Z" fill="#515252"/>
<path d="M103.12 159.17C105.71 156.58 107.45 153.88 108.32 151.09C109.09 148.77 110.2 147.62 111.64 147.62C112.41 147.62 113.27 148.1 114.23 149.07C114.9 152.54 115.87 159.52 117.12 170.02L120.59 197.17C120.59 198.9 119.53 199.76 117.41 199.76C116.26 199.76 115.25 198.8 114.38 196.88C109.27 184.26 101.71 173.77 91.7 165.39C81.69 157.11 70.76 152.97 58.92 152.97C47.27 152.97 38.48 156.48 32.56 163.51C26.64 170.54 23.68 178 23.68 185.89C23.68 195.52 26.9 202.89 33.36 207.99C39.81 213.1 53.1 218.87 73.22 225.32C88.04 229.94 99.15 234.42 106.51 238.75C113.87 243.09 120.06 249.15 125.07 256.95C130.07 264.75 132.58 273.13 132.58 282.08C132.58 297.29 126.28 310.92 113.66 322.95C101.04 334.99 85.59 341.01 67.3 341.01C50.83 341.01 34.27 335.86 17.61 325.56C14.34 328.25 12.22 331.43 11.26 335.09C10.49 338.17 9.23 339.71 7.5 339.71C5.96 339.71 4.84999 337.73 4.17999 333.79C3.50999 329.84 2.11 311.16 0 277.74C0.39 276.59 1.39 276.01 3.03 276.01C4.48 276.01 5.62 277.08 6.5 279.19C21.32 316.45 42.03 335.08 68.6 335.08C81.8 335.08 92.13 331.11 99.59 323.16C107.05 315.22 110.78 306.1 110.78 295.79C110.78 288.67 108.79 282.11 104.79 276.14C100.79 270.18 95.5 265.37 88.9 261.7C82.31 258.05 71.88 253.95 57.63 249.43C39.33 243.56 26.89 237.99 20.3 232.75C13.7 227.5 8.86 221.58 5.78 214.98C2.7 208.39 1.16 202.01 1.16 195.85C1.16 183.05 6.96 171.68 18.56 161.77C30.16 151.85 44.38 146.89 61.24 146.89C67.6 146.89 74.26 147.9 81.25 149.92C88.21 151.95 95.51 155.03 103.12 159.17Z" fill="#515252"/>
<path d="M194.11 140.1C194.4 152.22 194.63 164.34 194.83 176.47L194.54 266.38L195.11 309.96C195.11 318.24 196.29 324.2 198.65 327.86C201.01 331.51 206.09 333.68 213.89 334.35C216.97 334.64 218.51 335.55 218.51 337.09C218.51 338.73 217.26 339.55 214.76 339.55C214.09 339.55 213.26 339.5 212.3 339.41C202.39 338.45 190.54 337.96 176.77 337.96C168.39 337.96 161.66 338.39 156.55 339.24C155.49 339.35 154.53 339.4 153.67 339.4C150.78 339.4 149.33 338.51 149.33 336.72C149.33 335.04 150.63 334.15 153.23 334.05C161.99 333.95 167.75 331.43 170.5 326.46C173.24 321.5 174.61 313.2 174.61 301.54L174.18 219.22C174.08 192.74 173.72 176.93 173.09 171.77C172.46 166.62 170.47 162.31 167.1 158.84C163.72 155.37 159.01 153.17 152.94 152.2C149.19 151.63 147.31 150.61 147.31 149.17C147.31 147.54 148.85 146.62 151.93 146.43C169.55 145.27 182.78 143.15 191.64 140.07H194.11V140.1Z" fill="#515252"/>
<path d="M309.65 319.49C304.93 326.33 299.3 331.46 292.75 334.87C286.2 338.29 278.79 340 270.51 340C260.78 340 253.15 337.41 247.61 332.2C242.07 327 239.3 320.16 239.3 311.68C239.3 305.32 240.96 299.41 244.28 293.91C247.6 288.42 251.41 284.47 255.69 282.07C259.97 279.66 267.51 276.62 278.29 272.97C293.7 267.86 302.94 263.63 306.03 260.26C309.11 256.89 310.65 252.5 310.65 247.09C310.65 238.5 308.63 231.81 304.59 227.02C300.54 222.24 294.81 219.85 287.4 219.85C281.33 219.85 276.76 221.21 273.67 223.92C270.59 226.72 268.23 232.18 266.59 240.31C264.86 249.21 261.05 253.65 255.19 253.65C253.06 253.65 250.73 252.59 248.18 250.47C245.63 248.36 244.35 245.23 244.35 241.09C244.35 233.86 248.35 227.59 256.34 222.24C264.33 216.89 275.31 214.22 289.28 214.22C300.35 214.22 309.19 215.79 315.78 218.92C322.38 222.05 326.52 225.65 328.21 229.69C329.89 233.74 330.73 241.55 330.73 253.12L329.87 291.3C329.87 306.05 330.76 316.53 332.54 322.75C334.33 328.96 337.62 332.07 342.43 332.07C343.39 332.07 344.74 331.93 346.47 331.64L348.93 331.35C351.14 331.35 352.25 332.16 352.25 333.77C352.25 337.45 342.77 339.3 323.8 339.3C318.31 339.3 314.63 338.02 312.76 335.47C310.88 332.89 309.84 327.58 309.65 319.49ZM309.65 263.16C306.76 266.91 300.21 271.48 290 276.88C279.89 282.08 272.62 287.04 268.19 291.76C263.76 296.57 261.55 302.35 261.55 309.09C261.55 315.16 263.35 320.3 266.96 324.54C270.58 328.78 275.08 330.9 280.46 330.9C286.04 330.9 291.3 329.19 296.21 325.77C301.12 322.35 304.75 317.99 307.11 312.7C309.47 307.4 310.65 299.55 310.65 289.16C310.66 281.36 310.33 272.69 309.65 263.16Z" fill="#515252"/>
<path d="M431.04 312.56C451.79 266.82 462.17 238.85 462.17 228.64C462.17 224.21 459.48 221.81 454.08 221.42C450.9 221.23 449.31 220.36 449.31 218.83C449.31 216.9 450.51 215.94 452.92 215.94L474.59 216.23L487.59 216.09C490.67 216.09 492.21 217.05 492.21 218.98C492.21 220.43 491.1 221.24 488.89 221.43C480.99 222.3 475.26 225.64 471.7 231.47C468.14 237.3 463.33 247.96 457.28 263.46C447.09 289.65 439.69 307.61 435.07 317.33C430.55 326.67 427.9 332.64 427.14 335.23C425.98 338.51 424.58 340.14 422.95 340.14C421.79 340.14 420.35 338.12 418.61 334.08L401.4 296.82L383.47 256.81C377.39 243.13 373.05 234.35 370.46 230.45C367.86 226.55 365.93 224.19 364.68 223.37C363.43 222.55 361.07 221.85 357.6 221.28C355.38 220.89 354.28 219.98 354.28 218.53C354.28 216.61 355.67 215.65 358.47 215.65L383.59 215.94C395.43 215.94 402.08 215.9 403.52 215.8C406.89 215.8 408.58 216.72 408.58 218.54C408.58 219.99 406.85 221 403.38 221.57C398.47 222.44 396.02 224.95 396.02 229.09C396.02 236.58 407.7 264.41 431.04 312.56Z" fill="#515252"/>
<path d="M577.14 319.49C572.42 326.33 566.79 331.46 560.24 334.87C553.69 338.29 546.28 340 538 340C528.27 340 520.64 337.41 515.1 332.2C509.56 327 506.79 320.16 506.79 311.68C506.79 305.32 508.45 299.41 511.77 293.91C515.09 288.42 518.9 284.47 523.18 282.07C527.46 279.66 535 276.62 545.78 272.97C561.19 267.86 570.43 263.63 573.52 260.26C576.6 256.89 578.14 252.5 578.14 247.09C578.14 238.5 576.12 231.81 572.08 227.02C568.03 222.24 562.3 219.85 554.89 219.85C548.82 219.85 544.25 221.21 541.16 223.92C538.08 226.72 535.72 232.18 534.08 240.31C532.35 249.21 528.54 253.65 522.68 253.65C520.55 253.65 518.22 252.59 515.67 250.47C513.12 248.36 511.84 245.23 511.84 241.09C511.84 233.86 515.84 227.59 523.83 222.24C531.82 216.89 542.8 214.22 556.77 214.22C567.84 214.22 576.68 215.79 583.27 218.92C589.87 222.05 594.01 225.65 595.7 229.69C597.38 233.74 598.22 241.55 598.22 253.12L597.36 291.3C597.36 306.05 598.25 316.53 600.03 322.75C601.82 328.96 605.11 332.07 609.92 332.07C610.88 332.07 612.23 331.93 613.96 331.64L616.42 331.35C618.63 331.35 619.74 332.16 619.74 333.77C619.74 337.45 610.26 339.3 591.29 339.3C585.8 339.3 582.12 338.02 580.25 335.47C578.36 332.89 577.33 327.58 577.14 319.49ZM577.14 263.16C574.25 266.91 567.7 271.48 557.49 276.88C547.38 282.08 540.11 287.04 535.68 291.76C531.25 296.57 529.04 302.35 529.04 309.09C529.04 315.16 530.84 320.3 534.45 324.54C538.07 328.78 542.57 330.9 547.95 330.9C553.53 330.9 558.79 329.19 563.7 325.77C568.61 322.35 572.24 317.99 574.6 312.7C576.96 307.4 578.14 299.55 578.14 289.16C578.15 281.36 577.81 272.69 577.14 263.16Z" fill="#515252"/>
</svg>
