<?xml version="1.0" encoding="UTF-8" standalone="no"?>
<!-- Created with Inkscape (http://www.inkscape.org/) -->

<svg
   xmlns:dc="http://purl.org/dc/elements/1.1/"
   xmlns:cc="http://creativecommons.org/ns#"
   xmlns:rdf="http://www.w3.org/1999/02/22-rdf-syntax-ns#"
   xmlns:svg="http://www.w3.org/2000/svg"
   xmlns="http://www.w3.org/2000/svg"
   xmlns:sodipodi="http://sodipodi.sourceforge.net/DTD/sodipodi-0.dtd"
   xmlns:inkscape="http://www.inkscape.org/namespaces/inkscape"
   version="1.1"
   id="svg815"
   xml:space="preserve"
   width="811.47974"
   height="181.87773"
   viewBox="0 0 811.47972 181.87773"
   sodipodi:docname="logo-white.svg"
   inkscape:version="0.92.2 (5c3e80d, 2017-08-06)"><metadata
     id="metadata821"><rdf:RDF><cc:Work
         rdf:about=""><dc:format>image/svg+xml</dc:format><dc:type
           rdf:resource="http://purl.org/dc/dcmitype/StillImage" /><dc:title></dc:title></cc:Work></rdf:RDF></metadata><defs
     id="defs819"><clipPath
       clipPathUnits="userSpaceOnUse"
       id="clipPath845"><path
         d="M 0,365.098 H 841.89 V 0 H 0 Z"
         id="path843"
         inkscape:connector-curvature="0" /></clipPath></defs><sodipodi:namedview
     pagecolor="#ffffff"
     bordercolor="#666666"
     borderopacity="1"
     objecttolerance="10"
     gridtolerance="10"
     guidetolerance="10"
     inkscape:pageopacity="0"
     inkscape:pageshadow="2"
     inkscape:window-width="1920"
     inkscape:window-height="1017"
     id="namedview817"
     showgrid="false"
     fit-margin-top="0"
     fit-margin-left="0"
     fit-margin-right="0"
     fit-margin-bottom="0"
     inkscape:zoom="1.2828279"
     inkscape:cx="404.61841"
     inkscape:cy="91.556801"
     inkscape:window-x="1912"
     inkscape:window-y="-8"
     inkscape:window-maximized="1"
     inkscape:current-layer="g823" /><g
     id="g823"
     inkscape:groupmode="layer"
     inkscape:label="MAXFLIZ-logo-pelne"
     transform="matrix(1.3333333,0,0,-1.3333333,-156.6416,333.71959)"><g
       id="g825"
       transform="translate(427.6289,159.0055)"
       style="fill:#ffffff"><path
         d="M 0,0 H 19.691 V 43.688 H 53.33 v 1.432 h 0.005 v 1.434 H 19.691 V 88.43 h 44.598 v 1.417 0.018 1.416 H 0 Z"
         style="fill:#ffffff;fill-opacity:1;fill-rule:nonzero;stroke:none"
         id="path827"
         inkscape:connector-curvature="0" /></g><g
       id="g829"
       transform="translate(524.252,250.2867)"
       style="fill:#ffffff"><path
         d="m 0,0 h -19.691 v -91.281 h 66.635 v 1.43 0.003 1.433 H 0 Z"
         style="fill:#ffffff;fill-opacity:1;fill-rule:nonzero;stroke:none"
         id="path831"
         inkscape:connector-curvature="0" /></g><path
       d="m 583.712,159.005 h 19.691 v 91.281 h -19.691 z"
       style="fill:#ffffff;fill-opacity:1;fill-rule:nonzero;stroke:none"
       id="path833"
       inkscape:connector-curvature="0" /><g
       id="g835"
       transform="translate(407.0308,250.2867)"
       style="fill:#ffffff"><path
         d="M 0,0 H -1.773 -3.602 L -30.799,-34.464 -55.29,0 h -22.298 l 32.277,-45.366 -36.234,-45.915 h 1.829 1.737 l 34.295,43.555 31.036,-43.555 H 9.651 l -38.73,54.509 z"
         style="fill:#ffffff;fill-opacity:1;fill-rule:nonzero;stroke:none"
         id="path837"
         inkscape:connector-curvature="0" /></g><g
       id="g839"
       style="fill:#ffffff"><g
         id="g841"
         clip-path="url(#clipPath845)"
         style="fill:#ffffff"><g
           id="g847"
           transform="translate(690.8877,177.2379)"
           style="fill:#ffffff"><path
             d="m 0,0 c -4.711,0 -8.587,-3.574 -9.065,-8.158 -0.821,-3.911 -4.145,-6.899 -8.22,-7.208 H -51.258 L 3.403,72.528 v 0.521 h -74.721 v -1.428 h -0.001 v -1.435 h 51.917 L -74.578,-17.71 v -0.522 h 74.576 -5.06 0.001 0.231 l 5.061,0.005 c 4.928,0.124 8.885,4.154 8.885,9.111 C 9.116,-4.081 5.034,0 0,0"
             style="fill:#ffffff;fill-opacity:1;fill-rule:nonzero;stroke:none"
             id="path849"
             inkscape:connector-curvature="0" /></g><g
           id="g851"
           transform="translate(204.0122,250.2897)"
           style="fill:#ffffff"><path
             d="M 0,0 -25.95,-66.244 -55.292,0 h -31.239 c 5.37,0 9.723,-4.353 9.723,-9.722 V -91.28 h 1.435 v -0.001 h 1.435 v 86.076 l 38.024,-86.082 h 1.603 l 0.028,0.058 h 1.541 L 0.652,-5.895 V -91.28 H 20.081 V 0 Z"
             style="fill:#ffffff;fill-opacity:1;fill-rule:nonzero;stroke:none"
             id="path853"
             inkscape:connector-curvature="0" /></g><g
           id="g855"
           transform="translate(252.7168,189.7472)"
           style="fill:#ffffff"><path
             d="M 0,0 17.44,37.395 35.535,0 Z m 24.633,60.441 -42.465,-91.086 h 1.508 l -10e-4,-0.001 h 1.584 L -1.783,-2.862 H 36.56 L 49.995,-30.645 H 71.387 L 26.624,60.444 Z"
             style="fill:#ffffff;fill-opacity:1;fill-rule:nonzero;stroke:none"
             id="path857"
             inkscape:connector-curvature="0" /></g><g
           id="g859"
           transform="translate(240.9834,128.3873)"
           style="fill:#ffffff"><path
             d="M 0,0 C 3.334,0 5.044,1.453 5.044,4.104 5.044,6.925 3.164,8.207 0,8.207 H -3.79 V 0 Z m -0.057,10.344 c 4.645,0 7.438,-2.137 7.438,-6.213 0,-3.96 -2.793,-6.183 -7.438,-6.183 H -3.79 v -7.552 h -2.308 v 19.948 z"
             style="fill:#ffffff;fill-opacity:1;fill-rule:nonzero;stroke:none"
             id="path861"
             inkscape:connector-curvature="0" /></g><path
           d="m 251.306,138.731 h 2.308 v -19.947 h -2.308 z"
           style="fill:#ffffff;fill-opacity:1;fill-rule:nonzero;stroke:none"
           id="path863"
           inkscape:connector-curvature="0" /><g
           id="g865"
           transform="translate(271.8257,116.1334)"
           style="fill:#ffffff"><path
             d="m 0,0 v -1.767 c -0.513,-0.285 -1.482,-0.485 -2.337,-0.485 -2.08,0 -3.59,1.169 -3.59,2.936 0,0.683 0.227,1.397 0.798,1.966 h -8.692 v 19.948 h 13.422 v -2.166 h -11.114 v -6.27 h 8.663 v -2.164 h -8.663 V 4.816 H -0.342 V 2.65 H -1.253 C -2.964,2.508 -3.989,1.967 -3.989,0.94 c 0,-0.94 0.655,-1.424 1.795,-1.424 0.798,0 1.681,0.171 2.194,0.484"
             style="fill:#ffffff;fill-opacity:1;fill-rule:nonzero;stroke:none"
             id="path867"
             inkscape:connector-curvature="0" /></g><g
           id="g869"
           transform="translate(277.418,125.4235)"
           style="fill:#ffffff"><path
             d="M 0,0 V -6.64 H -2.308 V 13.308 H 0 V 7.095 2.792 h 0.057 l 3.249,3.449 6.64,7.067 h 2.793 L 5.244,5.329 13.508,-6.668 10.772,-6.64 3.534,3.676 Z"
             style="fill:#ffffff;fill-opacity:1;fill-rule:nonzero;stroke:none"
             id="path871"
             inkscape:connector-curvature="0" /></g><g
           id="g873"
           transform="translate(295.9194,134.9977)"
           style="fill:#ffffff"><path
             d="M 0,0 H -0.057 C -0.057,-0.028 0,-2.307 0,-4.786 V -16.214 H -2.308 V 3.733 h 2.337 l 11.683,-16.071 h 0.058 c 0,0.028 -0.058,2.365 -0.058,4.674 V 3.733 h 2.337 v -19.947 h -2.365 z"
             style="fill:#ffffff;fill-opacity:1;fill-rule:nonzero;stroke:none"
             id="path875"
             inkscape:connector-curvature="0" /></g><g
           id="g877"
           transform="translate(324.5386,131.4078)"
           style="fill:#ffffff"><path
             d="M 0,0 C -0.769,1.824 -1.937,4.646 -1.966,4.674 H -2.023 C -2.052,4.646 -3.22,1.824 -3.961,0.028 l -2.194,-5.243 h 8.349 z m -7.039,-7.323 -2.223,-5.301 h -2.479 l 8.492,19.947 h 2.537 L 7.78,-12.624 H 5.301 l -2.223,5.301 z"
             style="fill:#ffffff;fill-opacity:1;fill-rule:nonzero;stroke:none"
             id="path879"
             inkscape:connector-curvature="0" /></g><g
           id="g881"
           transform="translate(343.3579,124.6256)"
           style="fill:#ffffff"><path
             d="m 0,0 c 0.229,-2.85 2.593,-4.133 5.643,-4.133 2.907,0 4.673,1.169 4.673,3.563 0,3.278 -3.305,3.448 -5.785,3.99 -2.707,0.627 -6.184,1.595 -6.184,5.642 0,3.476 2.565,5.443 6.755,5.443 3.704,0 6.44,-1.539 7.294,-4.959 L 10.174,8.948 c -0.542,2.194 -2.166,3.477 -5.101,3.477 -2.906,0 -4.361,-1.253 -4.361,-3.278 0,-2.649 2.509,-3.22 5.358,-3.79 2.964,-0.569 6.612,-1.51 6.612,-5.898 0,-3.762 -2.622,-5.672 -7.068,-5.672 -3.363,0 -7.21,1.112 -7.837,5.614 z"
             style="fill:#ffffff;fill-opacity:1;fill-rule:nonzero;stroke:none"
             id="path883"
             inkscape:connector-curvature="0" /></g><g
           id="g885"
           transform="translate(366.7036,136.5651)"
           style="fill:#ffffff"><path
             d="M 0,0 V -17.781 H -2.337 V 0 H -9.176 V 2.166 H 6.868 V 0 Z"
             style="fill:#ffffff;fill-opacity:1;fill-rule:nonzero;stroke:none"
             id="path887"
             inkscape:connector-curvature="0" /></g><g
           id="g889"
           transform="translate(383.1543,128.5299)"
           style="fill:#ffffff"><path
             d="m 0,0 c 2.906,0 4.844,1.026 4.844,3.904 0,2.821 -1.881,4.16 -4.987,4.16 H -4.019 V 0 Z m 0.256,-1.91 c -0.427,-0.027 -1.397,-0.027 -1.823,-0.027 h -2.452 v -7.809 h -2.308 v 19.947 h 6.098 c 4.674,0 7.439,-2.308 7.439,-6.213 0,-3.076 -1.739,-4.872 -4.56,-5.47 L 7.58,-9.746 H 4.787 Z"
             style="fill:#ffffff;fill-opacity:1;fill-rule:nonzero;stroke:none"
             id="path891"
             inkscape:connector-curvature="0" /></g><g
           id="g893"
           transform="translate(403.1367,120.6354)"
           style="fill:#ffffff"><path
             d="m 0,0 c 4.474,0 8.008,3.078 8.008,8.151 0,5.073 -3.534,8.15 -8.008,8.15 -4.502,0 -8.007,-3.106 -8.007,-8.15 C -8.007,3.078 -4.502,0 0,0 m 0,18.495 c 5.814,0 10.345,-4.161 10.345,-10.344 C 10.345,1.938 5.814,-2.223 0,-2.223 c -5.841,0 -10.344,4.161 -10.344,10.374 0,6.183 4.503,10.344 10.344,10.344"
             style="fill:#ffffff;fill-opacity:1;fill-rule:nonzero;stroke:none"
             id="path895"
             inkscape:connector-curvature="0" /></g><g
           id="g897"
           transform="translate(419.0757,134.9977)"
           style="fill:#ffffff"><path
             d="M 0,0 H -0.057 C -0.057,-0.028 0,-2.307 0,-4.786 V -16.214 H -2.308 V 3.733 h 2.337 l 11.683,-16.071 h 0.058 c 0,0.028 -0.058,2.365 -0.058,4.674 V 3.733 h 2.336 v -19.947 h -2.364 z"
             style="fill:#ffffff;fill-opacity:1;fill-rule:nonzero;stroke:none"
             id="path899"
             inkscape:connector-curvature="0" /></g><g
           id="g901"
           transform="translate(447.6943,131.4078)"
           style="fill:#ffffff"><path
             d="M 0,0 C -0.77,1.824 -1.938,4.646 -1.966,4.674 H -2.022 C -2.053,4.646 -3.221,1.824 -3.961,0.028 l -2.194,-5.243 h 8.349 z m -7.039,-7.323 -2.223,-5.301 h -2.479 l 8.492,19.947 h 2.537 L 7.78,-12.624 H 5.301 l -2.223,5.301 z"
             style="fill:#ffffff;fill-opacity:1;fill-rule:nonzero;stroke:none"
             id="path903"
             inkscape:connector-curvature="0" /></g><g
           id="g905"
           transform="translate(478.7969,127.7887)"
           style="fill:#ffffff"><path
             d="M 0,0 C -0.912,2.906 -1.596,5.415 -1.624,5.443 H -1.682 C -1.71,5.415 -2.365,2.906 -3.305,-0.199 L -6.041,-9.005 H -8.55 l -6.439,19.947 h 2.565 l 2.962,-9.489 c 1.026,-3.277 2.253,-7.153 2.281,-7.209 h 0.056 c 0.03,0.056 1.169,3.903 1.882,6.297 l 2.365,7.724 h 2.707 L 2.166,0.513 C 2.878,-1.853 4.019,-5.7 4.047,-5.756 h 0.057 c 0.029,0.056 1.225,3.932 2.194,7.038 l 3.106,9.66 h 2.309 L 5.301,-9.005 H 2.85 Z"
             style="fill:#ffffff;fill-opacity:1;fill-rule:nonzero;stroke:none"
             id="path907"
             inkscape:connector-curvature="0" /></g><g
           id="g909"
           transform="translate(495.5361,134.9977)"
           style="fill:#ffffff"><path
             d="M 0,0 H -0.058 C -0.058,-0.028 0,-2.307 0,-4.786 V -16.214 H -2.309 V 3.733 h 2.337 l 11.683,-16.071 h 0.058 c 0,0.028 -0.058,2.365 -0.058,4.674 V 3.733 h 2.337 v -19.947 h -2.365 z"
             style="fill:#ffffff;fill-opacity:1;fill-rule:nonzero;stroke:none"
             id="path911"
             inkscape:connector-curvature="0" /></g><g
           id="g913"
           transform="translate(527.7734,116.1334)"
           style="fill:#ffffff"><path
             d="m 0,0 v -1.767 c -0.514,-0.285 -1.481,-0.485 -2.337,-0.485 -2.081,0 -3.592,1.169 -3.592,2.936 0,0.683 0.229,1.397 0.8,1.966 h -8.692 v 19.948 h 13.422 v -2.166 h -11.114 v -6.27 h 8.662 v -2.164 h -8.662 V 4.816 h 11.17 V 2.65 H -1.255 C -2.965,2.508 -3.99,1.967 -3.99,0.94 c 0,-0.94 0.655,-1.424 1.795,-1.424 0.798,0 1.681,0.171 2.195,0.484"
             style="fill:#ffffff;fill-opacity:1;fill-rule:nonzero;stroke:none"
             id="path915"
             inkscape:connector-curvature="0" /></g><g
           id="g917"
           transform="translate(539.0937,136.5651)"
           style="fill:#ffffff"><path
             d="M 0,0 V -17.781 H -2.337 V 0 h -6.84 V 2.166 H 6.867 V 0 Z"
             style="fill:#ffffff;fill-opacity:1;fill-rule:nonzero;stroke:none"
             id="path919"
             inkscape:connector-curvature="0" /></g><g
           id="g921"
           transform="translate(555.543,128.5299)"
           style="fill:#ffffff"><path
             d="m 0,0 c 2.907,0 4.846,1.026 4.846,3.904 0,2.821 -1.882,4.16 -4.989,4.16 H -4.018 V 0 Z M 0.256,-1.91 C -0.171,-1.937 -1.14,-1.937 -1.567,-1.937 h -2.451 v -7.809 h -2.308 v 19.947 h 6.098 c 4.674,0 7.438,-2.308 7.438,-6.213 0,-3.076 -1.739,-4.872 -4.56,-5.47 L 7.581,-9.746 H 4.787 Z"
             style="fill:#ffffff;fill-opacity:1;fill-rule:nonzero;stroke:none"
             id="path923"
             inkscape:connector-curvature="0" /></g><g
           id="g925"
           transform="translate(570.3125,123.5993)"
           style="fill:#ffffff"><path
             d="m 0,0 c -1.682,-1.994 -2.337,-2.593 -2.337,-2.621 l 0.057,-0.058 c 0.029,0 1.025,0.03 2.478,0.03 H 10.943 V -4.815 H -5.301 v 2.136 L 5.87,10.486 c 1.453,1.682 2.194,2.395 2.194,2.423 l -0.027,0.086 c -0.03,0 -0.942,-0.029 -2.423,-0.029 H -5.017 v 2.166 h 15.96 v -2.223 z"
             style="fill:#ffffff;fill-opacity:1;fill-rule:nonzero;stroke:none"
             id="path927"
             inkscape:connector-curvature="0" /></g><g
           id="g929"
           transform="translate(594.8555,131.4078)"
           style="fill:#ffffff"><path
             d="M 0,0 C -0.77,1.824 -1.938,4.646 -1.966,4.674 H -2.022 C -2.052,4.646 -3.221,1.824 -3.961,0.028 l -2.194,-5.243 h 8.349 z m -7.039,-7.323 -2.223,-5.301 h -2.478 l 8.491,19.947 h 2.537 L 7.78,-12.624 H 5.301 l -2.223,5.301 z"
             style="fill:#ffffff;fill-opacity:1;fill-rule:nonzero;stroke:none"
             id="path931"
             inkscape:connector-curvature="0" /></g><g
           id="g933"
           transform="translate(716.832,241.2775)"
           style="fill:#ffffff"><path
             d="M 0,0 C 1.184,0 1.801,0.488 1.801,1.337 1.801,2.238 1.158,2.7 0,2.7 H -1.671 V 0 Z M -0.077,-1.466 C -0.36,-1.492 -0.745,-1.492 -0.925,-1.492 h -0.746 v -3.574 h -1.954 v 9.489 h 3.523 C 2.367,4.423 3.807,3.267 3.807,1.388 3.807,0 2.983,-0.823 1.853,-1.131 L 4.09,-5.066 H 1.93 Z m -7.817,1.131 c 0,-4.705 3.291,-7.894 7.792,-7.894 4.475,0 7.817,3.189 7.817,7.894 0,4.707 -3.342,7.844 -7.817,7.844 -4.501,0 -7.792,-3.163 -7.792,-7.844 M 9.259,-0.36 c 0,-5.53 -4.217,-9.361 -9.361,-9.361 -5.169,0 -9.336,3.831 -9.336,9.361 0,5.554 4.167,9.36 9.336,9.36 5.144,0 9.361,-3.806 9.361,-9.36"
             style="fill:#ffffff;fill-opacity:1;fill-rule:nonzero;stroke:none"
             id="path935"
             inkscape:connector-curvature="0" /></g></g></g><g
       id="g1796"
       style="fill:#ffffff"><g
         clip-path="url(#clipPath845)"
         id="g1794"
         style="fill:#ffffff"><g
           transform="translate(690.8877,177.2379)"
           id="g1706"
           style="fill:#ffffff"><path
             inkscape:connector-curvature="0"
             id="path1704"
             style="fill:#ffffff;fill-opacity:1;fill-rule:nonzero;stroke:none"
             d="m 0,0 c -4.711,0 -8.587,-3.574 -9.065,-8.158 -0.821,-3.911 -4.145,-6.899 -8.22,-7.208 H -51.258 L 3.403,72.528 v 0.521 h -74.721 v -1.428 h -0.001 v -1.435 h 51.917 L -74.578,-17.71 v -0.522 h 74.576 -5.06 0.001 0.231 l 5.061,0.005 c 4.928,0.124 8.885,4.154 8.885,9.111 C 9.116,-4.081 5.034,0 0,0" /></g><g
           transform="translate(204.0122,250.2897)"
           id="g1710"
           style="fill:#ffffff"><path
             inkscape:connector-curvature="0"
             id="path1708"
             style="fill:#ffffff;fill-opacity:1;fill-rule:nonzero;stroke:none"
             d="M 0,0 -25.95,-66.244 -55.292,0 h -31.239 c 5.37,0 9.723,-4.353 9.723,-9.722 V -91.28 h 1.435 v -0.001 h 1.435 v 86.076 l 38.024,-86.082 h 1.603 l 0.028,0.058 h 1.541 L 0.652,-5.895 V -91.28 H 20.081 V 0 Z" /></g><g
           transform="translate(252.7168,189.7472)"
           id="g1714"
           style="fill:#ffffff"><path
             inkscape:connector-curvature="0"
             id="path1712"
             style="fill:#ffffff;fill-opacity:1;fill-rule:nonzero;stroke:none"
             d="M 0,0 17.44,37.395 35.535,0 Z m 24.633,60.441 -42.465,-91.086 h 1.508 l -10e-4,-0.001 h 1.584 L -1.783,-2.862 H 36.56 L 49.995,-30.645 H 71.387 L 26.624,60.444 Z" /></g><g
           transform="translate(240.9834,128.3873)"
           id="g1718"
           style="fill:#ffffff"><path
             inkscape:connector-curvature="0"
             id="path1716"
             style="fill:#ffffff;fill-opacity:1;fill-rule:nonzero;stroke:none"
             d="M 0,0 C 3.334,0 5.044,1.453 5.044,4.104 5.044,6.925 3.164,8.207 0,8.207 H -3.79 V 0 Z m -0.057,10.344 c 4.645,0 7.438,-2.137 7.438,-6.213 0,-3.96 -2.793,-6.183 -7.438,-6.183 H -3.79 v -7.552 h -2.308 v 19.948 z" /></g><path
           inkscape:connector-curvature="0"
           id="path1720"
           style="fill:#ffffff;fill-opacity:1;fill-rule:nonzero;stroke:none"
           d="m 251.306,138.731 h 2.308 v -19.947 h -2.308 z" /><g
           transform="translate(271.8257,116.1334)"
           id="g1724"
           style="fill:#ffffff"><path
             inkscape:connector-curvature="0"
             id="path1722"
             style="fill:#ffffff;fill-opacity:1;fill-rule:nonzero;stroke:none"
             d="m 0,0 v -1.767 c -0.513,-0.285 -1.482,-0.485 -2.337,-0.485 -2.08,0 -3.59,1.169 -3.59,2.936 0,0.683 0.227,1.397 0.798,1.966 h -8.692 v 19.948 h 13.422 v -2.166 h -11.114 v -6.27 h 8.663 v -2.164 h -8.663 V 4.816 H -0.342 V 2.65 H -1.253 C -2.964,2.508 -3.989,1.967 -3.989,0.94 c 0,-0.94 0.655,-1.424 1.795,-1.424 0.798,0 1.681,0.171 2.194,0.484" /></g><g
           transform="translate(277.418,125.4235)"
           id="g1728"
           style="fill:#ffffff"><path
             inkscape:connector-curvature="0"
             id="path1726"
             style="fill:#ffffff;fill-opacity:1;fill-rule:nonzero;stroke:none"
             d="M 0,0 V -6.64 H -2.308 V 13.308 H 0 V 7.095 2.792 h 0.057 l 3.249,3.449 6.64,7.067 h 2.793 L 5.244,5.329 13.508,-6.668 10.772,-6.64 3.534,3.676 Z" /></g><g
           transform="translate(295.9194,134.9977)"
           id="g1732"
           style="fill:#ffffff"><path
             inkscape:connector-curvature="0"
             id="path1730"
             style="fill:#ffffff;fill-opacity:1;fill-rule:nonzero;stroke:none"
             d="M 0,0 H -0.057 C -0.057,-0.028 0,-2.307 0,-4.786 V -16.214 H -2.308 V 3.733 h 2.337 l 11.683,-16.071 h 0.058 c 0,0.028 -0.058,2.365 -0.058,4.674 V 3.733 h 2.337 v -19.947 h -2.365 z" /></g><g
           transform="translate(324.5386,131.4078)"
           id="g1736"
           style="fill:#ffffff"><path
             inkscape:connector-curvature="0"
             id="path1734"
             style="fill:#ffffff;fill-opacity:1;fill-rule:nonzero;stroke:none"
             d="M 0,0 C -0.769,1.824 -1.937,4.646 -1.966,4.674 H -2.023 C -2.052,4.646 -3.22,1.824 -3.961,0.028 l -2.194,-5.243 h 8.349 z m -7.039,-7.323 -2.223,-5.301 h -2.479 l 8.492,19.947 h 2.537 L 7.78,-12.624 H 5.301 l -2.223,5.301 z" /></g><g
           transform="translate(343.3579,124.6256)"
           id="g1740"
           style="fill:#ffffff"><path
             inkscape:connector-curvature="0"
             id="path1738"
             style="fill:#ffffff;fill-opacity:1;fill-rule:nonzero;stroke:none"
             d="m 0,0 c 0.229,-2.85 2.593,-4.133 5.643,-4.133 2.907,0 4.673,1.169 4.673,3.563 0,3.278 -3.305,3.448 -5.785,3.99 -2.707,0.627 -6.184,1.595 -6.184,5.642 0,3.476 2.565,5.443 6.755,5.443 3.704,0 6.44,-1.539 7.294,-4.959 L 10.174,8.948 c -0.542,2.194 -2.166,3.477 -5.101,3.477 -2.906,0 -4.361,-1.253 -4.361,-3.278 0,-2.649 2.509,-3.22 5.358,-3.79 2.964,-0.569 6.612,-1.51 6.612,-5.898 0,-3.762 -2.622,-5.672 -7.068,-5.672 -3.363,0 -7.21,1.112 -7.837,5.614 z" /></g><g
           transform="translate(366.7036,136.5651)"
           id="g1744"
           style="fill:#ffffff"><path
             inkscape:connector-curvature="0"
             id="path1742"
             style="fill:#ffffff;fill-opacity:1;fill-rule:nonzero;stroke:none"
             d="M 0,0 V -17.781 H -2.337 V 0 H -9.176 V 2.166 H 6.868 V 0 Z" /></g><g
           transform="translate(383.1543,128.5299)"
           id="g1748"
           style="fill:#ffffff"><path
             inkscape:connector-curvature="0"
             id="path1746"
             style="fill:#ffffff;fill-opacity:1;fill-rule:nonzero;stroke:none"
             d="m 0,0 c 2.906,0 4.844,1.026 4.844,3.904 0,2.821 -1.881,4.16 -4.987,4.16 H -4.019 V 0 Z m 0.256,-1.91 c -0.427,-0.027 -1.397,-0.027 -1.823,-0.027 h -2.452 v -7.809 h -2.308 v 19.947 h 6.098 c 4.674,0 7.439,-2.308 7.439,-6.213 0,-3.076 -1.739,-4.872 -4.56,-5.47 L 7.58,-9.746 H 4.787 Z" /></g><g
           transform="translate(403.1367,120.6354)"
           id="g1752"
           style="fill:#ffffff"><path
             inkscape:connector-curvature="0"
             id="path1750"
             style="fill:#ffffff;fill-opacity:1;fill-rule:nonzero;stroke:none"
             d="m 0,0 c 4.474,0 8.008,3.078 8.008,8.151 0,5.073 -3.534,8.15 -8.008,8.15 -4.502,0 -8.007,-3.106 -8.007,-8.15 C -8.007,3.078 -4.502,0 0,0 m 0,18.495 c 5.814,0 10.345,-4.161 10.345,-10.344 C 10.345,1.938 5.814,-2.223 0,-2.223 c -5.841,0 -10.344,4.161 -10.344,10.374 0,6.183 4.503,10.344 10.344,10.344" /></g><g
           transform="translate(419.0757,134.9977)"
           id="g1756"
           style="fill:#ffffff"><path
             inkscape:connector-curvature="0"
             id="path1754"
             style="fill:#ffffff;fill-opacity:1;fill-rule:nonzero;stroke:none"
             d="M 0,0 H -0.057 C -0.057,-0.028 0,-2.307 0,-4.786 V -16.214 H -2.308 V 3.733 h 2.337 l 11.683,-16.071 h 0.058 c 0,0.028 -0.058,2.365 -0.058,4.674 V 3.733 h 2.336 v -19.947 h -2.364 z" /></g><g
           transform="translate(447.6943,131.4078)"
           id="g1760"
           style="fill:#ffffff"><path
             inkscape:connector-curvature="0"
             id="path1758"
             style="fill:#ffffff;fill-opacity:1;fill-rule:nonzero;stroke:none"
             d="M 0,0 C -0.77,1.824 -1.938,4.646 -1.966,4.674 H -2.022 C -2.053,4.646 -3.221,1.824 -3.961,0.028 l -2.194,-5.243 h 8.349 z m -7.039,-7.323 -2.223,-5.301 h -2.479 l 8.492,19.947 h 2.537 L 7.78,-12.624 H 5.301 l -2.223,5.301 z" /></g><g
           transform="translate(478.7969,127.7887)"
           id="g1764"
           style="fill:#ffffff"><path
             inkscape:connector-curvature="0"
             id="path1762"
             style="fill:#ffffff;fill-opacity:1;fill-rule:nonzero;stroke:none"
             d="M 0,0 C -0.912,2.906 -1.596,5.415 -1.624,5.443 H -1.682 C -1.71,5.415 -2.365,2.906 -3.305,-0.199 L -6.041,-9.005 H -8.55 l -6.439,19.947 h 2.565 l 2.962,-9.489 c 1.026,-3.277 2.253,-7.153 2.281,-7.209 h 0.056 c 0.03,0.056 1.169,3.903 1.882,6.297 l 2.365,7.724 h 2.707 L 2.166,0.513 C 2.878,-1.853 4.019,-5.7 4.047,-5.756 h 0.057 c 0.029,0.056 1.225,3.932 2.194,7.038 l 3.106,9.66 h 2.309 L 5.301,-9.005 H 2.85 Z" /></g><g
           transform="translate(495.5361,134.9977)"
           id="g1768"
           style="fill:#ffffff"><path
             inkscape:connector-curvature="0"
             id="path1766"
             style="fill:#ffffff;fill-opacity:1;fill-rule:nonzero;stroke:none"
             d="M 0,0 H -0.058 C -0.058,-0.028 0,-2.307 0,-4.786 V -16.214 H -2.309 V 3.733 h 2.337 l 11.683,-16.071 h 0.058 c 0,0.028 -0.058,2.365 -0.058,4.674 V 3.733 h 2.337 v -19.947 h -2.365 z" /></g><g
           transform="translate(527.7734,116.1334)"
           id="g1772"
           style="fill:#ffffff"><path
             inkscape:connector-curvature="0"
             id="path1770"
             style="fill:#ffffff;fill-opacity:1;fill-rule:nonzero;stroke:none"
             d="m 0,0 v -1.767 c -0.514,-0.285 -1.481,-0.485 -2.337,-0.485 -2.081,0 -3.592,1.169 -3.592,2.936 0,0.683 0.229,1.397 0.8,1.966 h -8.692 v 19.948 h 13.422 v -2.166 h -11.114 v -6.27 h 8.662 v -2.164 h -8.662 V 4.816 h 11.17 V 2.65 H -1.255 C -2.965,2.508 -3.99,1.967 -3.99,0.94 c 0,-0.94 0.655,-1.424 1.795,-1.424 0.798,0 1.681,0.171 2.195,0.484" /></g><g
           transform="translate(539.0937,136.5651)"
           id="g1776"
           style="fill:#ffffff"><path
             inkscape:connector-curvature="0"
             id="path1774"
             style="fill:#ffffff;fill-opacity:1;fill-rule:nonzero;stroke:none"
             d="M 0,0 V -17.781 H -2.337 V 0 h -6.84 V 2.166 H 6.867 V 0 Z" /></g><g
           transform="translate(555.543,128.5299)"
           id="g1780"
           style="fill:#ffffff"><path
             inkscape:connector-curvature="0"
             id="path1778"
             style="fill:#ffffff;fill-opacity:1;fill-rule:nonzero;stroke:none"
             d="m 0,0 c 2.907,0 4.846,1.026 4.846,3.904 0,2.821 -1.882,4.16 -4.989,4.16 H -4.018 V 0 Z M 0.256,-1.91 C -0.171,-1.937 -1.14,-1.937 -1.567,-1.937 h -2.451 v -7.809 h -2.308 v 19.947 h 6.098 c 4.674,0 7.438,-2.308 7.438,-6.213 0,-3.076 -1.739,-4.872 -4.56,-5.47 L 7.581,-9.746 H 4.787 Z" /></g><g
           transform="translate(570.3125,123.5993)"
           id="g1784"
           style="fill:#ffffff"><path
             inkscape:connector-curvature="0"
             id="path1782"
             style="fill:#ffffff;fill-opacity:1;fill-rule:nonzero;stroke:none"
             d="m 0,0 c -1.682,-1.994 -2.337,-2.593 -2.337,-2.621 l 0.057,-0.058 c 0.029,0 1.025,0.03 2.478,0.03 H 10.943 V -4.815 H -5.301 v 2.136 L 5.87,10.486 c 1.453,1.682 2.194,2.395 2.194,2.423 l -0.027,0.086 c -0.03,0 -0.942,-0.029 -2.423,-0.029 H -5.017 v 2.166 h 15.96 v -2.223 z" /></g><g
           transform="translate(594.8555,131.4078)"
           id="g1788"
           style="fill:#ffffff"><path
             inkscape:connector-curvature="0"
             id="path1786"
             style="fill:#ffffff;fill-opacity:1;fill-rule:nonzero;stroke:none"
             d="M 0,0 C -0.77,1.824 -1.938,4.646 -1.966,4.674 H -2.022 C -2.052,4.646 -3.221,1.824 -3.961,0.028 l -2.194,-5.243 h 8.349 z m -7.039,-7.323 -2.223,-5.301 h -2.478 l 8.491,19.947 h 2.537 L 7.78,-12.624 H 5.301 l -2.223,5.301 z" /></g><g
           transform="translate(716.832,241.2775)"
           id="g1792"
           style="fill:#ffffff"><path
             inkscape:connector-curvature="0"
             id="path1790"
             style="fill:#ffffff;fill-opacity:1;fill-rule:nonzero;stroke:none"
             d="M 0,0 C 1.184,0 1.801,0.488 1.801,1.337 1.801,2.238 1.158,2.7 0,2.7 H -1.671 V 0 Z M -0.077,-1.466 C -0.36,-1.492 -0.745,-1.492 -0.925,-1.492 h -0.746 v -3.574 h -1.954 v 9.489 h 3.523 C 2.367,4.423 3.807,3.267 3.807,1.388 3.807,0 2.983,-0.823 1.853,-1.131 L 4.09,-5.066 H 1.93 Z m -7.817,1.131 c 0,-4.705 3.291,-7.894 7.792,-7.894 4.475,0 7.817,3.189 7.817,7.894 0,4.707 -3.342,7.844 -7.817,7.844 -4.501,0 -7.792,-3.163 -7.792,-7.844 M 9.259,-0.36 c 0,-5.53 -4.217,-9.361 -9.361,-9.361 -5.169,0 -9.336,3.831 -9.336,9.361 0,5.554 4.167,9.36 9.336,9.36 5.144,0 9.361,-3.806 9.361,-9.36" /></g></g></g></g></svg>