<svg version="1.1" id="Warstwa_1" xmlns="http://www.w3.org/2000/svg" x="0" y="0" viewBox="-133 216.1 233 68.9" xml:space="preserve"><style>.st0{fill:#fff}</style><path class="st0" d="M-91.4 283.4c8.5-.1 16.6-3.4 22.7-9.4 6.1-6 9.6-14 9.8-22.5.2-6.4-1.5-12.7-4.9-18.2-.4-.7-1.2-1.1-2.1-1.1-.9 0-1.7.5-2.1 1.3-.4.8-.4 1.7.1 2.5 3 4.8 4.4 10.3 4.1 15.9-.6 13.8-12.8 26-26.6 26.7-7.9.4-15.5-2.6-21.1-8.2-5.6-5.6-8.5-13.3-8.2-21.1.7-13.8 12.9-26 26.7-26.6 5.6-.2 11.1 1.2 15.9 4.1.8.5 1.7.5 2.5.1s1.3-1.2 1.3-2.1c0-.8-.4-1.6-1.1-2.1-5.5-3.4-11.7-5.1-18.2-4.9-8.5.2-16.5 3.7-22.5 9.8s-9.4 14.2-9.4 22.7c-.1 8.9 3.3 17.2 9.6 23.5 6.2 6.2 14.5 9.6 23.2 9.6h.3"/><path class="st0" d="M-91.7 230.7c-1.1 0-2 .6-2.4 1.7l-12.4 29.7c-.4.9-.3 1.7.2 2.5s1.2 1.2 2.2 1.2c.5 0 .9-.1 1.4-.4s.8-.7 1-1.2l3.7-9.1h12.9l3.7 9.1c.2.5.5.9 1 1.2.4.3.9.4 1.4.4 1 0 1.7-.4 2.2-1.1s.5-1.6.2-2.5l-12.5-29.7c-.6-1.2-1.4-1.8-2.6-1.8m-4.7 20.3l4.8-11.8 4.7 11.8h-9.5zm68.4 7.8c.4-.6.4-1.2.1-1.9l-8.7-20.7c-.3-.9-1-1.3-1.8-1.3s-1.5.4-1.8 1.3l-8.7 20.7c-.3.7-.3 1.3.1 1.9.4.6.9.9 1.6.9.4 0 .7-.1 1-.3s.6-.5.8-.9l2.6-6.2h8.8l2.5 6.2c.2.4.4.7.7.9.3.2.7.3 1.1.3.8-.1 1.3-.4 1.7-.9m-13.5-9.8l3.1-7.7 3.1 7.7h-6.2zm20.7-3c.8-.4 1.8-.5 2.9-.5.3 0 .6 0 .8-.1.3-.1.5-.3.6-.5.2-.2.2-.5.2-.9 0-.5-.2-1.2-1.1-1.6-.7-.3-1.6-.4-2.7-.1-.9.2-1.8.6-2.5 1.1-.1-.4-.2-.7-.5-1s-.8-.5-1.4-.5-1.1.2-1.4.5-.5.8-.5 1.4v14c0 .6.2 1.1.5 1.4s.8.5 1.4.5 1.1-.2 1.4-.5.5-.8.5-1.4v-10.4c.5-.6 1-1.1 1.8-1.4m15.6 9.8h-1c-.6 0-1-.2-1.4-.7-.4-.5-.6-1.1-.6-1.8v-7.7h2.4c.5 0 1-.2 1.3-.5.3-.3.5-.7.5-1.2s-.2-.9-.5-1.2c-.3-.3-.8-.5-1.3-.5h-2.5v-3.6c0-.5-.2-1-.5-1.4-.4-.4-.8-.5-1.4-.5-.5 0-1 .2-1.4.5-.4.4-.5.8-.5 1.4v3.6h-.9c-.5 0-1 .2-1.3.5s-.5.7-.5 1.2.2.9.5 1.2.8.5 1.3.5h.9v7.7c0 1.2.3 2.3.7 3.2.5 1 1.2 1.7 2.1 2.3s1.9.8 3 .8h.6c.6 0 1.1-.2 1.5-.5.4-.4.6-.8.6-1.4 0-.5-.2-1-.5-1.3-.3-.4-.7-.6-1.1-.6m52.2-.5c.7-1.3 1.1-2.9 1.1-4.5 0-1.7-.4-3.2-1.2-4.6-.8-1.3-1.8-2.4-3.2-3.2-1.3-.8-2.8-1.2-4.5-1.2s-3.2.4-4.5 1.2-2.4 1.9-3.1 3.2c-.8 1.3-1.2 2.9-1.2 4.6v14c0 .5.2 1 .6 1.4.4.4.8.6 1.4.6.6 0 1-.2 1.4-.6.4-.4.5-.8.5-1.4v-7.4c.6.6 1.3 1.1 2.1 1.5 1.1.5 2.2.8 3.5.8 1.6 0 3-.4 4.2-1.2 1.2-.8 2.2-1.9 2.9-3.2m-3.3-1.8c-.5.8-1.1 1.5-1.8 1.9-.8.5-1.6.7-2.6.7s-1.8-.2-2.6-.7-1.4-1.1-1.8-1.9c-.4-.8-.7-1.7-.7-2.8 0-1 .2-2 .7-2.8.4-.8 1.1-1.5 1.8-1.9.8-.5 1.6-.7 2.6-.7s1.9.2 2.6.7c.8.5 1.4 1.1 1.8 1.9.5.8.7 1.8.7 2.8 0 1.1-.3 2-.7 2.8m21 2.9c0-.5-.3-.9-.7-1.3-.3-.3-.7-.4-1.2-.4-.4 0-.8.2-1.2.4-.4.3-.9.5-1.5.8-.6.2-1.2.3-1.8.3-1.1 0-2.1-.2-2.9-.7-.8-.5-1.5-1.1-2-2-.3-.4-.4-.9-.6-1.4h11.3c.5 0 .9-.2 1.3-.5.3-.3.5-.7.5-1.2 0-1.7-.3-3.2-.9-4.5s-1.6-2.3-2.8-3.1c-1.2-.7-2.7-1.1-4.3-1.1-1.7 0-3.2.4-4.5 1.1s-2.3 1.8-3.1 3.2c-.7 1.3-1.1 2.9-1.1 4.6 0 1.7.4 3.3 1.2 4.6s1.9 2.4 3.2 3.2c1.4.8 3 1.1 4.7 1.1 1 0 2-.2 3.1-.5 1.1-.4 2-.8 2.7-1.4.6-.3.7-.8.6-1.2m-11.4-8.5c.4-.8 1-1.5 1.8-2s1.7-.7 2.8-.7c1 0 1.8.2 2.4.6.7.4 1.2 1 1.5 1.8.2.4.4.9.4 1.4h-9.4c.2-.4.3-.8.5-1.1m24.9-.5c.4.7.6 1.6.6 2.7v7.6c0 .5.2 1 .5 1.4.4.4.8.6 1.4.6.5 0 1-.2 1.4-.6.4-.4.6-.8.6-1.4v-7.6c0-1.8-.3-3.3-1-4.5s-1.6-2.2-2.8-2.8c-1.2-.6-2.5-1-4-1-1.4 0-2.7.3-3.8.9-.1.1-.3.1-.4.2-.1-.2-.2-.3-.3-.5-.4-.4-.8-.5-1.4-.5-.5 0-1 .2-1.4.5-.4.4-.6.8-.6 1.4v13.8c0 .5.2 1 .6 1.4.4.4.8.6 1.4.6s1-.2 1.4-.6c.4-.4.5-.8.5-1.4v-10.9c.3-.4.7-.7 1.2-.9.6-.3 1.4-.5 2.2-.5.9 0 1.7.2 2.4.5.5.4 1.1.9 1.5 1.6M26 238c-1.1-1.1-2.5-2-4-2.7-1.5-.6-3.3-.9-5.1-.9-1.9 0-3.6.3-5.2.9-1.6.6-2.9 1.5-4 2.7-1.1 1.1-2 2.5-2.6 4.1-.6 1.6-.9 3.3-.9 5.2s.3 3.6.9 5.2c.6 1.6 1.5 2.9 2.6 4.1 1.1 1.1 2.5 2 4 2.7 1.6.6 3.3.9 5.2.9 1.9 0 3.6-.3 5.1-.9 1.5-.6 2.9-1.5 4-2.7 1.1-1.1 2-2.5 2.6-4.1s.9-3.3.9-5.2-.3-3.6-.9-5.2c-.6-1.6-1.5-3-2.6-4.1m-1.2 12.8c-.4 1.1-1 2-1.8 2.8s-1.7 1.4-2.7 1.9-2.2.7-3.5.7-2.4-.2-3.5-.7c-1-.5-2-1.1-2.7-1.9-.8-.8-1.4-1.7-1.8-2.8-.4-1.1-.6-2.3-.6-3.5 0-1.3.2-2.4.6-3.5.4-1.1 1-2 1.8-2.8s1.7-1.4 2.7-1.9c1-.4 2.2-.7 3.5-.7s2.4.2 3.5.7c1 .4 2 1.1 2.7 1.9.8.8 1.4 1.7 1.8 2.8s.6 2.3.6 3.5c0 1.2-.2 2.4-.6 3.5"/></svg>