<svg xmlns="http://www.w3.org/2000/svg" xml:space="preserve" width="811.48" height="181.878"><defs><clipPath clipPathUnits="userSpaceOnUse" id="a"><path d="M0 365.098h841.89V0H0Z"/></clipPath></defs><g style="fill:#fff"><path d="M0 0h19.691v43.688H53.33v1.432h.005v1.434H19.691V88.43h44.598v2.851H0Z" style="fill:#fff;fill-opacity:1;fill-rule:nonzero;stroke:none" transform="matrix(1.33333 0 0 -1.33333 413.53 121.712)"/></g><g style="fill:#fff"><path d="M0 0h-19.691v-91.281h66.635v2.866H0Z" style="fill:#fff;fill-opacity:1;fill-rule:nonzero;stroke:none" transform="matrix(1.33333 0 0 -1.33333 542.361 .004)"/></g><path d="M583.712 159.005h19.691v91.281h-19.691z" style="fill:#fff;fill-opacity:1;fill-rule:nonzero;stroke:none" transform="matrix(1.33333 0 0 -1.33333 -156.642 333.72)"/><g style="fill:#fff"><path d="M0 0h-3.602l-27.197-34.464L-55.29 0h-22.298l32.277-45.366-36.234-45.915h3.566l34.295 43.555 31.036-43.555H9.651l-38.73 54.509z" style="fill:#fff;fill-opacity:1;fill-rule:nonzero;stroke:none" transform="matrix(1.33333 0 0 -1.33333 386.066 .004)"/></g><g clip-path="url(#a)" style="fill:#fff" transform="matrix(1.33333 0 0 -1.33333 -156.642 333.72)"><g style="fill:#fff"><path d="M0 0a9.116 9.116 0 0 1-9.065-8.158 9.118 9.118 0 0 0-8.22-7.208h-33.973L3.403 72.528v.521h-74.721v-1.428h-.001v-1.435h51.917L-74.578-17.71v-.522H-.002h-5.06.232l5.061.005A9.116 9.116 0 0 1 0 0" style="fill:#fff;fill-opacity:1;fill-rule:nonzero;stroke:none" transform="translate(690.888 177.238)"/></g><g style="fill:#fff"><path d="m0 0-25.95-66.244L-55.292 0h-31.239c5.37 0 9.723-4.353 9.723-9.722V-91.28h1.435v-.001h1.435v86.076l38.024-86.082h1.603l.028.058h1.541L.652-5.895V-91.28h19.429V0Z" style="fill:#fff;fill-opacity:1;fill-rule:nonzero;stroke:none" transform="translate(204.012 250.29)"/></g><g style="fill:#fff"><path d="m0 0 17.44 37.395L35.535 0Zm24.633 60.441-42.465-91.086h1.508l-.001-.001h1.584L-1.783-2.862H36.56l13.435-27.783h21.392L26.624 60.444Z" style="fill:#fff;fill-opacity:1;fill-rule:nonzero;stroke:none" transform="translate(252.717 189.747)"/></g><g style="fill:#fff"><path d="M0 0c3.334 0 5.044 1.453 5.044 4.104 0 2.821-1.88 4.103-5.044 4.103h-3.79V0Zm-.057 10.344c4.645 0 7.438-2.137 7.438-6.213 0-3.96-2.793-6.183-7.438-6.183H-3.79v-7.552h-2.308v19.948z" style="fill:#fff;fill-opacity:1;fill-rule:nonzero;stroke:none" transform="translate(240.983 128.387)"/></g><path d="M251.306 138.731h2.308v-19.947h-2.308z" style="fill:#fff;fill-opacity:1;fill-rule:nonzero;stroke:none"/><g style="fill:#fff"><path d="M0 0v-1.767c-.513-.285-1.482-.485-2.337-.485-2.08 0-3.59 1.169-3.59 2.936 0 .683.227 1.397.798 1.966h-8.692v19.948H-.399v-2.166h-11.114v-6.27h8.663v-2.164h-8.663V4.816H-.342V2.65h-.911c-1.711-.142-2.736-.683-2.736-1.71 0-.94.655-1.424 1.795-1.424.798 0 1.681.171 2.194.484" style="fill:#fff;fill-opacity:1;fill-rule:nonzero;stroke:none" transform="translate(271.826 116.133)"/></g><g style="fill:#fff"><path d="M0 0v-6.64h-2.308v19.948H0V2.792h.057l3.249 3.449 6.64 7.067h2.793L5.244 5.329l8.264-11.997-2.736.028L3.534 3.676Z" style="fill:#fff;fill-opacity:1;fill-rule:nonzero;stroke:none" transform="translate(277.418 125.424)"/></g><g style="fill:#fff"><path d="M0 0h-.057c0-.028.057-2.307.057-4.786v-11.428h-2.308V3.733H.029l11.683-16.071h.058c0 .028-.058 2.365-.058 4.674V3.733h2.337v-19.947h-2.365z" style="fill:#fff;fill-opacity:1;fill-rule:nonzero;stroke:none" transform="translate(295.92 134.998)"/></g><g style="fill:#fff"><path d="M0 0c-.769 1.824-1.937 4.646-1.966 4.674h-.057c-.029-.028-1.197-2.85-1.938-4.646l-2.194-5.243h8.349zm-7.039-7.323-2.223-5.301h-2.479l8.492 19.947h2.537L7.78-12.624H5.301L3.078-7.323z" style="fill:#fff;fill-opacity:1;fill-rule:nonzero;stroke:none" transform="translate(324.539 131.408)"/></g><g style="fill:#fff"><path d="M0 0c.229-2.85 2.593-4.133 5.643-4.133 2.907 0 4.673 1.169 4.673 3.563 0 3.278-3.305 3.448-5.785 3.99-2.707.627-6.184 1.595-6.184 5.642 0 3.476 2.565 5.443 6.755 5.443 3.704 0 6.44-1.539 7.294-4.959l-2.222-.598c-.542 2.194-2.166 3.477-5.101 3.477-2.906 0-4.361-1.253-4.361-3.278 0-2.649 2.509-3.22 5.358-3.79 2.964-.569 6.612-1.51 6.612-5.898 0-3.762-2.622-5.672-7.068-5.672-3.363 0-7.21 1.112-7.837 5.614z" style="fill:#fff;fill-opacity:1;fill-rule:nonzero;stroke:none" transform="translate(343.358 124.626)"/></g><g style="fill:#fff"><path d="M0 0v-17.781h-2.337V0h-6.839v2.166H6.868V0Z" style="fill:#fff;fill-opacity:1;fill-rule:nonzero;stroke:none" transform="translate(366.704 136.565)"/></g><g style="fill:#fff"><path d="M0 0c2.906 0 4.844 1.026 4.844 3.904 0 2.821-1.881 4.16-4.987 4.16h-3.876V0Zm.256-1.91c-.427-.027-1.397-.027-1.823-.027h-2.452v-7.809h-2.308v19.947h6.098c4.674 0 7.439-2.308 7.439-6.213 0-3.076-1.739-4.872-4.56-5.47l4.93-8.264H4.787Z" style="fill:#fff;fill-opacity:1;fill-rule:nonzero;stroke:none" transform="translate(383.154 128.53)"/></g><g style="fill:#fff"><path d="M0 0c4.474 0 8.008 3.078 8.008 8.151S4.474 16.301 0 16.301c-4.502 0-8.007-3.106-8.007-8.15C-8.007 3.078-4.502 0 0 0m0 18.495c5.814 0 10.345-4.161 10.345-10.344C10.345 1.938 5.814-2.223 0-2.223c-5.841 0-10.344 4.161-10.344 10.374 0 6.183 4.503 10.344 10.344 10.344" style="fill:#fff;fill-opacity:1;fill-rule:nonzero;stroke:none" transform="translate(403.137 120.635)"/></g><g style="fill:#fff"><path d="M0 0h-.057c0-.028.057-2.307.057-4.786v-11.428h-2.308V3.733H.029l11.683-16.071h.058c0 .028-.058 2.365-.058 4.674V3.733h2.336v-19.947h-2.364z" style="fill:#fff;fill-opacity:1;fill-rule:nonzero;stroke:none" transform="translate(419.076 134.998)"/></g><g style="fill:#fff"><path d="M0 0c-.77 1.824-1.938 4.646-1.966 4.674h-.056c-.031-.028-1.199-2.85-1.939-4.646l-2.194-5.243h8.349zm-7.039-7.323-2.223-5.301h-2.479l8.492 19.947h2.537L7.78-12.624H5.301L3.078-7.323z" style="fill:#fff;fill-opacity:1;fill-rule:nonzero;stroke:none" transform="translate(447.694 131.408)"/></g><g style="fill:#fff"><path d="M0 0c-.912 2.906-1.596 5.415-1.624 5.443h-.058c-.028-.028-.683-2.537-1.623-5.642l-2.736-8.806H-8.55l-6.439 19.947h2.565l2.962-9.489C-8.436-1.824-7.209-5.7-7.181-5.756h.056c.03.056 1.169 3.903 1.882 6.297l2.365 7.724h2.707L2.166.513C2.878-1.853 4.019-5.7 4.047-5.756h.057c.029.056 1.225 3.932 2.194 7.038l3.106 9.66h2.309L5.301-9.005H2.85Z" style="fill:#fff;fill-opacity:1;fill-rule:nonzero;stroke:none" transform="translate(478.797 127.789)"/></g><g style="fill:#fff"><path d="M0 0h-.058c0-.028.058-2.307.058-4.786v-11.428h-2.309V3.733H.028l11.683-16.071h.058c0 .028-.058 2.365-.058 4.674V3.733h2.337v-19.947h-2.365z" style="fill:#fff;fill-opacity:1;fill-rule:nonzero;stroke:none" transform="translate(495.536 134.998)"/></g><g style="fill:#fff"><path d="M0 0v-1.767c-.514-.285-1.481-.485-2.337-.485-2.081 0-3.592 1.169-3.592 2.936 0 .683.229 1.397.8 1.966h-8.692v19.948H-.399v-2.166h-11.114v-6.27h8.662v-2.164h-8.662V4.816h11.17V2.65h-.912C-2.965 2.508-3.99 1.967-3.99.94c0-.94.655-1.424 1.795-1.424.798 0 1.681.171 2.195.484" style="fill:#fff;fill-opacity:1;fill-rule:nonzero;stroke:none" transform="translate(527.773 116.133)"/></g><g style="fill:#fff"><path d="M0 0v-17.781h-2.337V0h-6.84v2.166H6.867V0Z" style="fill:#fff;fill-opacity:1;fill-rule:nonzero;stroke:none" transform="translate(539.094 136.565)"/></g><g style="fill:#fff"><path d="M0 0c2.907 0 4.846 1.026 4.846 3.904 0 2.821-1.882 4.16-4.989 4.16h-3.875V0Zm.256-1.91c-.427-.027-1.396-.027-1.823-.027h-2.451v-7.809h-2.308v19.947h6.098c4.674 0 7.438-2.308 7.438-6.213 0-3.076-1.739-4.872-4.56-5.47l4.931-8.264H4.787Z" style="fill:#fff;fill-opacity:1;fill-rule:nonzero;stroke:none" transform="translate(555.543 128.53)"/></g><g style="fill:#fff"><path d="M0 0c-1.682-1.994-2.337-2.593-2.337-2.621l.057-.058c.029 0 1.025.03 2.478.03h10.745v-2.166H-5.301v2.136L5.87 10.486c1.453 1.682 2.194 2.395 2.194 2.423l-.027.086c-.03 0-.942-.029-2.423-.029H-5.017v2.166h15.96v-2.223z" style="fill:#fff;fill-opacity:1;fill-rule:nonzero;stroke:none" transform="translate(570.313 123.6)"/></g><g style="fill:#fff"><path d="M0 0c-.77 1.824-1.938 4.646-1.966 4.674h-.056c-.03-.028-1.199-2.85-1.939-4.646l-2.194-5.243h8.349zm-7.039-7.323-2.223-5.301h-2.478l8.491 19.947h2.537L7.78-12.624H5.301L3.078-7.323z" style="fill:#fff;fill-opacity:1;fill-rule:nonzero;stroke:none" transform="translate(594.856 131.408)"/></g><g style="fill:#fff"><path d="M0 0c1.184 0 1.801.488 1.801 1.337C1.801 2.238 1.158 2.7 0 2.7h-1.671V0Zm-.077-1.466c-.283-.026-.668-.026-.848-.026h-.746v-3.574h-1.954v9.489h3.523c2.469 0 3.909-1.156 3.909-3.035 0-1.388-.824-2.211-1.954-2.519L4.09-5.066H1.93ZM-7.894-.335c0-4.705 3.291-7.894 7.792-7.894 4.475 0 7.817 3.189 7.817 7.894 0 4.707-3.342 7.844-7.817 7.844-4.501 0-7.792-3.163-7.792-7.844M9.259-.36c0-5.53-4.217-9.361-9.361-9.361-5.169 0-9.336 3.831-9.336 9.361C-9.438 5.194-5.271 9-.102 9 5.042 9 9.259 5.194 9.259-.36" style="fill:#fff;fill-opacity:1;fill-rule:nonzero;stroke:none" transform="translate(716.832 241.278)"/></g></g><g clip-path="url(#a)" style="fill:#fff" transform="matrix(1.33333 0 0 -1.33333 -156.642 333.72)"><g style="fill:#fff"><path style="fill:#fff;fill-opacity:1;fill-rule:nonzero;stroke:none" d="M0 0a9.116 9.116 0 0 1-9.065-8.158 9.118 9.118 0 0 0-8.22-7.208h-33.973L3.403 72.528v.521h-74.721v-1.428h-.001v-1.435h51.917L-74.578-17.71v-.522H-.002h-5.06.232l5.061.005A9.116 9.116 0 0 1 0 0" transform="translate(690.888 177.238)"/></g><g style="fill:#fff"><path style="fill:#fff;fill-opacity:1;fill-rule:nonzero;stroke:none" d="m0 0-25.95-66.244L-55.292 0h-31.239c5.37 0 9.723-4.353 9.723-9.722V-91.28h1.435v-.001h1.435v86.076l38.024-86.082h1.603l.028.058h1.541L.652-5.895V-91.28h19.429V0Z" transform="translate(204.012 250.29)"/></g><g style="fill:#fff"><path style="fill:#fff;fill-opacity:1;fill-rule:nonzero;stroke:none" d="m0 0 17.44 37.395L35.535 0Zm24.633 60.441-42.465-91.086h1.508l-.001-.001h1.584L-1.783-2.862H36.56l13.435-27.783h21.392L26.624 60.444Z" transform="translate(252.717 189.747)"/></g><g style="fill:#fff"><path style="fill:#fff;fill-opacity:1;fill-rule:nonzero;stroke:none" d="M0 0c3.334 0 5.044 1.453 5.044 4.104 0 2.821-1.88 4.103-5.044 4.103h-3.79V0Zm-.057 10.344c4.645 0 7.438-2.137 7.438-6.213 0-3.96-2.793-6.183-7.438-6.183H-3.79v-7.552h-2.308v19.948z" transform="translate(240.983 128.387)"/></g><path style="fill:#fff;fill-opacity:1;fill-rule:nonzero;stroke:none" d="M251.306 138.731h2.308v-19.947h-2.308z"/><g style="fill:#fff"><path style="fill:#fff;fill-opacity:1;fill-rule:nonzero;stroke:none" d="M0 0v-1.767c-.513-.285-1.482-.485-2.337-.485-2.08 0-3.59 1.169-3.59 2.936 0 .683.227 1.397.798 1.966h-8.692v19.948H-.399v-2.166h-11.114v-6.27h8.663v-2.164h-8.663V4.816H-.342V2.65h-.911c-1.711-.142-2.736-.683-2.736-1.71 0-.94.655-1.424 1.795-1.424.798 0 1.681.171 2.194.484" transform="translate(271.826 116.133)"/></g><g style="fill:#fff"><path style="fill:#fff;fill-opacity:1;fill-rule:nonzero;stroke:none" d="M0 0v-6.64h-2.308v19.948H0V2.792h.057l3.249 3.449 6.64 7.067h2.793L5.244 5.329l8.264-11.997-2.736.028L3.534 3.676Z" transform="translate(277.418 125.424)"/></g><g style="fill:#fff"><path style="fill:#fff;fill-opacity:1;fill-rule:nonzero;stroke:none" d="M0 0h-.057c0-.028.057-2.307.057-4.786v-11.428h-2.308V3.733H.029l11.683-16.071h.058c0 .028-.058 2.365-.058 4.674V3.733h2.337v-19.947h-2.365z" transform="translate(295.92 134.998)"/></g><g style="fill:#fff"><path style="fill:#fff;fill-opacity:1;fill-rule:nonzero;stroke:none" d="M0 0c-.769 1.824-1.937 4.646-1.966 4.674h-.057c-.029-.028-1.197-2.85-1.938-4.646l-2.194-5.243h8.349zm-7.039-7.323-2.223-5.301h-2.479l8.492 19.947h2.537L7.78-12.624H5.301L3.078-7.323z" transform="translate(324.539 131.408)"/></g><g style="fill:#fff"><path style="fill:#fff;fill-opacity:1;fill-rule:nonzero;stroke:none" d="M0 0c.229-2.85 2.593-4.133 5.643-4.133 2.907 0 4.673 1.169 4.673 3.563 0 3.278-3.305 3.448-5.785 3.99-2.707.627-6.184 1.595-6.184 5.642 0 3.476 2.565 5.443 6.755 5.443 3.704 0 6.44-1.539 7.294-4.959l-2.222-.598c-.542 2.194-2.166 3.477-5.101 3.477-2.906 0-4.361-1.253-4.361-3.278 0-2.649 2.509-3.22 5.358-3.79 2.964-.569 6.612-1.51 6.612-5.898 0-3.762-2.622-5.672-7.068-5.672-3.363 0-7.21 1.112-7.837 5.614z" transform="translate(343.358 124.626)"/></g><g style="fill:#fff"><path style="fill:#fff;fill-opacity:1;fill-rule:nonzero;stroke:none" d="M0 0v-17.781h-2.337V0h-6.839v2.166H6.868V0Z" transform="translate(366.704 136.565)"/></g><g style="fill:#fff"><path style="fill:#fff;fill-opacity:1;fill-rule:nonzero;stroke:none" d="M0 0c2.906 0 4.844 1.026 4.844 3.904 0 2.821-1.881 4.16-4.987 4.16h-3.876V0Zm.256-1.91c-.427-.027-1.397-.027-1.823-.027h-2.452v-7.809h-2.308v19.947h6.098c4.674 0 7.439-2.308 7.439-6.213 0-3.076-1.739-4.872-4.56-5.47l4.93-8.264H4.787Z" transform="translate(383.154 128.53)"/></g><g style="fill:#fff"><path style="fill:#fff;fill-opacity:1;fill-rule:nonzero;stroke:none" d="M0 0c4.474 0 8.008 3.078 8.008 8.151S4.474 16.301 0 16.301c-4.502 0-8.007-3.106-8.007-8.15C-8.007 3.078-4.502 0 0 0m0 18.495c5.814 0 10.345-4.161 10.345-10.344C10.345 1.938 5.814-2.223 0-2.223c-5.841 0-10.344 4.161-10.344 10.374 0 6.183 4.503 10.344 10.344 10.344" transform="translate(403.137 120.635)"/></g><g style="fill:#fff"><path style="fill:#fff;fill-opacity:1;fill-rule:nonzero;stroke:none" d="M0 0h-.057c0-.028.057-2.307.057-4.786v-11.428h-2.308V3.733H.029l11.683-16.071h.058c0 .028-.058 2.365-.058 4.674V3.733h2.336v-19.947h-2.364z" transform="translate(419.076 134.998)"/></g><g style="fill:#fff"><path style="fill:#fff;fill-opacity:1;fill-rule:nonzero;stroke:none" d="M0 0c-.77 1.824-1.938 4.646-1.966 4.674h-.056c-.031-.028-1.199-2.85-1.939-4.646l-2.194-5.243h8.349zm-7.039-7.323-2.223-5.301h-2.479l8.492 19.947h2.537L7.78-12.624H5.301L3.078-7.323z" transform="translate(447.694 131.408)"/></g><g style="fill:#fff"><path style="fill:#fff;fill-opacity:1;fill-rule:nonzero;stroke:none" d="M0 0c-.912 2.906-1.596 5.415-1.624 5.443h-.058c-.028-.028-.683-2.537-1.623-5.642l-2.736-8.806H-8.55l-6.439 19.947h2.565l2.962-9.489C-8.436-1.824-7.209-5.7-7.181-5.756h.056c.03.056 1.169 3.903 1.882 6.297l2.365 7.724h2.707L2.166.513C2.878-1.853 4.019-5.7 4.047-5.756h.057c.029.056 1.225 3.932 2.194 7.038l3.106 9.66h2.309L5.301-9.005H2.85Z" transform="translate(478.797 127.789)"/></g><g style="fill:#fff"><path style="fill:#fff;fill-opacity:1;fill-rule:nonzero;stroke:none" d="M0 0h-.058c0-.028.058-2.307.058-4.786v-11.428h-2.309V3.733H.028l11.683-16.071h.058c0 .028-.058 2.365-.058 4.674V3.733h2.337v-19.947h-2.365z" transform="translate(495.536 134.998)"/></g><g style="fill:#fff"><path style="fill:#fff;fill-opacity:1;fill-rule:nonzero;stroke:none" d="M0 0v-1.767c-.514-.285-1.481-.485-2.337-.485-2.081 0-3.592 1.169-3.592 2.936 0 .683.229 1.397.8 1.966h-8.692v19.948H-.399v-2.166h-11.114v-6.27h8.662v-2.164h-8.662V4.816h11.17V2.65h-.912C-2.965 2.508-3.99 1.967-3.99.94c0-.94.655-1.424 1.795-1.424.798 0 1.681.171 2.195.484" transform="translate(527.773 116.133)"/></g><g style="fill:#fff"><path style="fill:#fff;fill-opacity:1;fill-rule:nonzero;stroke:none" d="M0 0v-17.781h-2.337V0h-6.84v2.166H6.867V0Z" transform="translate(539.094 136.565)"/></g><g style="fill:#fff"><path style="fill:#fff;fill-opacity:1;fill-rule:nonzero;stroke:none" d="M0 0c2.907 0 4.846 1.026 4.846 3.904 0 2.821-1.882 4.16-4.989 4.16h-3.875V0Zm.256-1.91c-.427-.027-1.396-.027-1.823-.027h-2.451v-7.809h-2.308v19.947h6.098c4.674 0 7.438-2.308 7.438-6.213 0-3.076-1.739-4.872-4.56-5.47l4.931-8.264H4.787Z" transform="translate(555.543 128.53)"/></g><g style="fill:#fff"><path style="fill:#fff;fill-opacity:1;fill-rule:nonzero;stroke:none" d="M0 0c-1.682-1.994-2.337-2.593-2.337-2.621l.057-.058c.029 0 1.025.03 2.478.03h10.745v-2.166H-5.301v2.136L5.87 10.486c1.453 1.682 2.194 2.395 2.194 2.423l-.027.086c-.03 0-.942-.029-2.423-.029H-5.017v2.166h15.96v-2.223z" transform="translate(570.313 123.6)"/></g><g style="fill:#fff"><path style="fill:#fff;fill-opacity:1;fill-rule:nonzero;stroke:none" d="M0 0c-.77 1.824-1.938 4.646-1.966 4.674h-.056c-.03-.028-1.199-2.85-1.939-4.646l-2.194-5.243h8.349zm-7.039-7.323-2.223-5.301h-2.478l8.491 19.947h2.537L7.78-12.624H5.301L3.078-7.323z" transform="translate(594.856 131.408)"/></g><g style="fill:#fff"><path style="fill:#fff;fill-opacity:1;fill-rule:nonzero;stroke:none" d="M0 0c1.184 0 1.801.488 1.801 1.337C1.801 2.238 1.158 2.7 0 2.7h-1.671V0Zm-.077-1.466c-.283-.026-.668-.026-.848-.026h-.746v-3.574h-1.954v9.489h3.523c2.469 0 3.909-1.156 3.909-3.035 0-1.388-.824-2.211-1.954-2.519L4.09-5.066H1.93ZM-7.894-.335c0-4.705 3.291-7.894 7.792-7.894 4.475 0 7.817 3.189 7.817 7.894 0 4.707-3.342 7.844-7.817 7.844-4.501 0-7.792-3.163-7.792-7.844M9.259-.36c0-5.53-4.217-9.361-9.361-9.361-5.169 0-9.336 3.831-9.336 9.361C-9.438 5.194-5.271 9-.102 9 5.042 9 9.259 5.194 9.259-.36" transform="translate(716.832 241.278)"/></g></g></svg>